<svg width="384" height="121" viewBox="0 0 384 121" fill="none" xmlns="http://www.w3.org/2000/svg">
<g clip-path="url(#clip0_84_129)">
<path d="M15.3558 99.7187C3.16542 94.0437 -1.16895 89.2473 2.3527 85.3294C3.70741 83.4378 6.07765 83.4378 9.4634 85.3294C6.75501 67.6276 8.31251 56.75 14.1359 52.6966C22.8726 46.6165 69.1949 31.0102 83.6201 45.1977C93.2359 54.6561 98.315 64.5201 98.8576 74.7897C103.326 74.3841 105.561 77.0865 105.561 82.8971C102.175 92.4899 94.4547 99.3809 82.4002 103.57C89.4435 108.975 90.3916 112.826 85.2445 115.123C80.0974 117.421 73.4608 118.569 65.3346 118.569H59.646H55.7857H48.4711L46.2368 117.352C28.223 123.568 16.7779 120.731 11.9016 108.84C11.2242 106.138 12.3756 103.097 15.3558 99.7187Z" fill="white"/>
<path d="M89.271 86.4197C98.7431 87.6461 108.755 49.6307 89.271 35.9547C82.4786 31.188 73.2794 28.532 61.6734 27.9866C70.8219 11.0971 70.0714 1.83535 59.4218 0.201253C43.4474 -2.25145 35.9196 18.3666 43.242 26.5569C49.9999 34.1168 18.6657 32.4821 11.4986 48.4185C6.71945 59.0427 6.03635 71.7098 9.44928 86.4197C11.0883 62.1753 26.6535 47.9419 56.1447 43.7195C82.1541 42.9014 79.799 85.1949 89.271 86.4197Z" fill="#B3D968"/>
<path d="M49.7788 11.3792C51.2762 11.8391 54.6175 15.6308 50.8152 18.6184C47.0145 21.6077 41.3699 13.907 46.323 8.38997C51.2762 2.87452 56.9726 6.70374 58.4183 11.3792C63.0657 26.3958 23.4371 42.6387 12.4802 64.9085C6.81565 76.4212 8.45835 88.5351 17.4083 101.25L15.6788 102.286C6.88986 89.1681 5.6611 76.3727 11.9925 63.8996C25.5868 37.1216 61.8364 27.3155 56.4599 11.3792C54.5 5.56968 49.9921 6.66307 47.9349 9.0798C40.7928 17.4703 54.0405 23.1015 49.7788 11.3792Z" fill="#7C3939"/>
<path d="M41.1002 39.2678C56.7672 28.082 80.4215 38.6546 85.6444 50.9134C89.1263 59.086 90.2526 71.8041 89.0233 89.068C94.1432 77.7294 98.4954 73.286 102.08 75.7376C107.456 79.4151 99.0081 95.888 86.8736 101.787C98.4703 99.4122 113.139 84.1657 102.08 73.7448C99.5198 71.191 96.1915 72.7745 92.095 78.4954C92.0207 64.7292 89.8705 54.2582 85.6444 47.0826C78.4255 34.8238 52.9273 27.3155 41.1002 39.2678Z" fill="#7C3939"/>
<path d="M54.0625 68.8128C51.5286 68.4687 54.1597 63.3646 59.4766 62.9892C64.9112 62.6075 68.2133 66.1693 66.3882 66.9733C65.1213 67.5333 62.5875 63.0659 59.4766 64.9054C56.3658 66.7449 56.5963 69.1569 54.0625 68.8128Z" fill="#7C3939"/>
<path d="M37.5503 70.0173C39.8928 68.9911 35.9556 64.8068 30.7406 65.9034C25.4095 67.0249 23.216 71.3547 25.1916 71.6284C26.5651 71.8193 27.7709 66.8294 31.2674 67.7444C34.7656 68.6611 35.2093 71.0434 37.5503 70.0173Z" fill="#7C3939"/>
<path d="M56.6339 89.1086C56.0569 92.04 60.9537 91.8679 63.8905 91.4659C66.8288 91.0624 72.9345 89.0523 70.3991 87.0407C67.8652 85.0291 67.5767 88.8224 63.315 88.4767C59.0517 88.1326 57.2094 86.1788 56.6339 89.1086Z" fill="#7C3939"/>
<path d="M24.1897 90.5727C23.7209 93.0755 27.7035 92.9285 30.0931 92.5843C32.4826 92.2418 37.4499 90.5242 35.3881 88.8067C33.3262 87.0908 33.0926 90.3271 29.6243 90.0331C26.1575 89.739 24.6585 88.0715 24.1897 90.5727Z" fill="#7C3939"/>
<path d="M46.0346 97.9465C46.9424 96.071 47.8205 98.8084 49.7789 98.8084C51.7372 98.8084 52.6012 96.9125 53.6376 97.9465C54.6756 98.9804 52.1402 101.71 49.7789 101.25C47.4175 100.79 45.6143 98.8146 46.0346 97.9465Z" fill="#7C3939"/>
<path d="M74.2588 97.29C77.4718 97.29 80.0764 95.7786 80.0764 93.9142C80.0764 92.0498 77.4718 90.5384 74.2588 90.5384C71.0459 90.5384 68.4412 92.0498 68.4412 93.9142C68.4412 95.7786 71.0459 97.29 74.2588 97.29Z" fill="#F6C346"/>
<path d="M22.0155 98.4393C24.5605 98.4393 26.6235 97.1711 26.6235 95.6069C26.6235 94.0426 24.5605 92.7744 22.0155 92.7744C19.4706 92.7744 17.4075 94.0426 17.4075 95.6069C17.4075 97.1711 19.4706 98.4393 22.0155 98.4393Z" fill="#F6C346"/>
<path d="M8.99772 84.624C5.41337 82.0701 2.8278 81.7896 1.24102 83.7824C-1.13914 86.7701 -0.927466 95.5047 9.4493 99.4122C11.657 100.433 13.7335 101.046 15.6788 101.25L13.9133 98.2625C3.16125 94.4311 -0.320141 90.2682 3.4691 85.7737C5.3632 84.5995 7.3566 85.136 9.4493 87.3833L8.99772 84.624Z" fill="#7C3939"/>
<path d="M47.9051 112.786C49.2097 111.33 52.8975 118.608 50.7463 119.375C48.5966 120.141 47.2905 120.218 45.9075 118.685C39.457 122.592 9.42736 122.976 11.0408 108.342C12.6542 93.709 43.2969 98.0748 51.5146 103.822C59.7323 109.569 62.1893 118.148 60.0396 118.685C58.8009 118.995 59.4485 116.071 56.1448 110.675C54.4529 107.912 50.7714 105.852 49.7475 105.234C44.8006 102.248 16.7247 92.0994 13.8819 108.342C12.8847 116.31 23.8667 120.485 33.4658 119.797C39.8662 119.337 44.3464 118.431 46.9063 117.077C47.6746 118.609 48.6217 119.145 49.7475 118.685C50.8231 118.455 46.599 114.241 47.9051 112.786Z" fill="#7C3939"/>
<path d="M53.9841 114.84C52.7579 112.106 50.0955 110.462 50.7776 110.273C51.4361 110.09 53.8445 111.255 55.2792 113.202C56.971 115.499 57.57 118.662 56.1447 118.796C54.7524 118.927 55.3168 117.818 53.9841 114.84Z" fill="#7C3939"/>
<path d="M52.0821 104.756C60.0317 101.027 67.6353 100.038 74.8928 101.787C85.7792 104.411 91.7406 121.563 65.0429 117.685C63.1425 119.064 75.6988 123.805 86.8736 115.788C98.0469 107.773 76.4483 90.4476 50.4405 103.636C50.7865 104.325 51.3337 104.698 52.0821 104.756Z" fill="#7C3939"/>
<path d="M185.431 48.8064C185.932 48.8064 186.183 49.4846 186.183 50.8409C186.183 51.578 185.873 52.4773 185.254 53.5388C184.635 54.5708 183.824 55.5291 182.822 56.4136C181.849 57.2687 180.758 57.9763 179.549 58.5365C178.34 59.0968 177.057 59.3769 175.701 59.3769C174.374 59.3769 173.327 58.9493 172.561 58.0943C171.824 57.2097 171.455 56.2367 171.455 55.1752C171.455 54.0843 171.632 52.8607 171.986 51.5043C172.34 50.148 172.723 48.7327 173.136 47.2585C174.256 43.337 174.831 40.5801 174.861 38.9879C174.861 38.3097 174.772 37.7938 174.595 37.4399C174.418 37.0566 174.079 36.865 173.578 36.865C172.693 36.865 171.75 37.3957 170.747 38.4572C169.745 39.5186 168.801 40.8749 167.917 42.5261C165.882 46.3002 164.806 49.9858 164.688 53.583C164.747 53.9958 164.806 54.4086 164.865 54.8214C164.924 55.2342 164.954 55.6765 164.954 56.1482C164.954 57.0918 164.482 57.9616 163.538 58.7577C162.624 59.5243 161.592 59.9076 160.442 59.9076C159.764 59.9076 159.263 59.5833 158.939 58.9346C158.614 58.2564 158.452 57.4308 158.452 56.4578C158.452 55.4848 158.673 54.158 159.116 52.4773C159.558 50.7967 160.044 49.0128 160.575 47.1258C161.99 42.1428 162.713 38.4277 162.742 35.9804C162.742 34.742 162.58 33.769 162.256 33.0614C161.961 32.3537 161.371 31.9999 160.487 31.9999C158.894 31.9999 157.317 33.1351 155.754 35.4055C154.191 37.6758 152.791 41.1993 151.553 45.9759C151.228 47.2142 150.978 48.2905 150.801 49.2045L150.756 50.0448C151.317 52.7575 151.597 54.5266 151.597 55.3521C151.597 57.0623 150.992 58.2122 149.783 58.8019C149.223 59.0673 148.678 59.3179 148.147 59.5538C147.646 59.7897 147.1 59.9076 146.511 59.9076C145.036 59.9076 144.299 58.5071 144.299 55.706C144.299 52.8754 145.081 47.3617 146.643 39.1648C147.204 36.2163 147.484 34.5651 147.484 34.2113C147.484 31.823 146.879 30.6289 145.67 30.6289C145.257 30.6289 144.874 30.7468 144.52 30.9827C144.196 31.2186 143.857 31.4692 143.503 31.7346C143.179 31.9999 142.84 32.2505 142.486 32.4864C142.132 32.7223 141.719 32.8403 141.248 32.8403C140.805 32.8403 140.584 32.4422 140.584 31.6461C140.584 30.0244 141.336 28.6976 142.84 27.6656C144.284 26.6041 146.039 26.0734 148.103 26.0734C150.756 26.0734 152.319 27.3118 152.791 29.7885C152.909 30.5257 152.997 31.307 153.056 32.1326C155.238 28.0342 157.995 25.985 161.327 25.985C164.954 25.985 167.032 27.7246 167.563 31.2038C167.74 32.2063 167.814 33.2825 167.784 34.4324V34.7863C169.701 32.1326 171.971 30.8058 174.595 30.8058C178.31 30.8058 180.168 33.0466 180.168 37.5284C180.168 39.4744 179.858 41.7595 179.239 44.3837C178.649 46.9784 178.207 48.8507 177.912 50.0006C177.647 51.121 177.514 51.9908 177.514 52.61C177.514 53.7305 177.898 54.2907 178.664 54.2907C179.46 54.2907 181.333 52.7575 184.281 49.691C184.812 49.1013 185.195 48.8064 185.431 48.8064Z" fill="#B3D968"/>
<path d="M211.135 48.8064C211.666 48.8064 211.931 49.4846 211.931 50.8409C211.931 51.578 211.621 52.4773 211.002 53.5388C210.383 54.5708 209.572 55.5291 208.57 56.4136C207.597 57.2687 206.506 57.9763 205.297 58.5365C204.088 59.0968 202.909 59.3769 201.759 59.3769C200.196 59.3769 199.149 58.0058 198.618 55.2637C197.852 56.5315 196.849 57.5783 195.611 58.4039C194.373 59.2 192.707 59.598 190.613 59.598C188.549 59.598 186.883 58.9493 185.615 57.652C184.348 56.3546 183.728 54.7772 183.758 52.9196C183.758 47.9071 185.424 43.9561 188.756 41.0666C190.171 39.8577 191.483 39.0616 192.692 38.6783C193.93 38.295 195.228 38.1033 196.584 38.1033C197.94 38.1033 199.046 38.3392 199.901 38.811C200.314 37.9559 200.786 37.5284 201.316 37.5284C202.348 37.5284 203.321 37.9854 204.235 38.8994C205.179 39.784 205.651 40.6243 205.651 41.4204C205.238 42.3934 204.633 43.5581 203.837 44.9144C203.601 46.2707 203.483 48.1725 203.483 50.6198C203.483 53.067 203.793 54.2907 204.412 54.2907C205.179 54.2907 207.036 52.7575 209.985 49.691C210.516 49.1013 210.899 48.8064 211.135 48.8064ZM190.259 51.4601C190.259 53.7305 191.1 54.8656 192.78 54.8656C194.579 54.8362 196.068 53.8779 197.247 51.9908C197.66 51.3422 197.999 50.5461 198.265 49.6025C198.265 46.3002 198.559 43.4696 199.149 41.1108C196.761 41.5826 194.682 42.7325 192.913 44.5606C191.144 46.3887 190.259 48.6885 190.259 51.4601Z" fill="#B3D968"/>
<path d="M215.603 37.1746C216.665 37.1746 217.667 38.1918 218.611 40.2263C219.997 38.7815 221.707 38.0591 223.741 38.0591C225.805 38.0591 227.353 38.5161 228.385 39.4302C229.417 40.3147 229.933 41.5826 229.933 43.2338C229.933 44.8554 229.712 46.5066 229.27 48.1873C228.857 49.8679 228.547 51.0768 228.341 51.8139C228.164 52.5216 228.075 53.1113 228.075 53.583C228.075 54.0548 228.238 54.2907 228.562 54.2907C229.004 54.2907 229.55 54.0106 230.198 53.4504C230.847 52.8901 231.496 52.2857 232.144 51.637C232.793 50.9589 233.383 50.3397 233.914 49.7795C234.474 49.2192 234.857 48.9391 235.063 48.9391C235.476 48.9391 235.683 49.4404 235.683 50.4429C235.683 52.5068 234.665 54.4971 232.631 56.4136C229.211 58.4186 227.029 59.4211 226.085 59.4211C225.997 59.4211 225.938 59.4064 225.908 59.3769C223.55 59.3769 222.37 57.4898 222.37 53.7157C222.37 52.094 222.518 50.605 222.812 49.2487C223.137 47.8924 223.373 46.9047 223.52 46.2855C223.667 45.6663 223.741 45.0323 223.741 44.3837C223.741 43.3222 223.122 42.7915 221.884 42.7915C220.675 42.7915 219.51 43.7055 218.39 45.5336C217.299 47.3322 216.562 49.2045 216.178 51.1505V51.4601C216.178 52.4626 216.326 53.4946 216.62 54.556C216.945 55.6175 217.107 56.3546 217.107 56.7674C217.107 57.7699 215.854 58.7577 213.348 59.7307C212.964 59.8781 212.625 59.9518 212.33 59.9518C211.593 59.9518 211.077 59.5685 210.782 58.8019C210.517 58.0353 210.384 56.8411 210.384 55.2195C210.384 51.0326 210.547 48.0103 210.871 46.1528C211.313 43.3812 212.316 40.8012 213.878 38.4129C214.409 37.5874 214.984 37.1746 215.603 37.1746Z" fill="#B3D968"/>
<path d="M243.56 37.838C245.536 37.8085 247.01 38.1771 247.983 38.9437C248.956 39.6808 249.442 40.757 249.442 42.1723C249.442 43.5581 249.015 44.7522 248.16 45.7547C247.334 46.7277 246.317 47.4206 245.108 47.8334C245.963 48.718 246.73 49.6173 247.408 50.5313C248.115 51.4454 248.469 52.4036 248.469 53.4061C248.469 55.3816 247.688 56.9149 246.125 58.0058C244.562 59.0673 242.381 59.598 239.58 59.598C236.808 59.598 234.729 59.0525 233.343 57.9616C231.958 56.8411 231.265 55.588 231.265 54.2022C231.265 52.7869 231.604 51.5043 232.282 50.3544C232.99 49.2045 233.741 48.6295 234.538 48.6295C235.009 48.6295 235.348 48.8064 235.555 49.1603C235.761 49.4846 236.144 50.4576 236.705 52.0793C236.911 52.669 237.25 53.2292 237.722 53.7599C238.813 54.9688 240.538 55.5733 242.897 55.5733C242.543 54.4528 241.968 53.4946 241.172 52.6985C240.405 51.8729 239.638 51.0768 238.872 50.3102C238.105 49.5436 237.427 48.7327 236.837 47.8777C236.248 46.9931 235.953 45.9611 235.953 44.7817C235.953 42.6588 236.749 40.9339 238.341 39.6071C239.845 38.4277 241.584 37.838 243.56 37.838ZM243.383 46.0201C244.562 44.7522 245.152 43.735 245.152 42.9684C245.152 42.6146 245.02 42.305 244.754 42.0396C244.518 41.7448 244.164 41.5973 243.693 41.5973C243.221 41.5973 242.764 41.6563 242.322 41.7742C241.909 41.8922 241.57 41.9806 241.304 42.0396C241.304 43.16 241.997 44.4869 243.383 46.0201Z" fill="#B3D968"/>
<path d="M263.125 56.0156C261.651 58.05 259.675 59.0673 257.198 59.0673C255.193 59.0673 253.586 58.6545 252.378 57.8289C251.198 56.9738 250.608 55.6323 250.608 53.8042C250.608 53.0376 250.712 52.3299 250.918 51.6812C251.154 51.0326 251.522 50.2365 252.024 49.293L253.306 38.811C254.22 38.1033 255.459 37.7495 257.021 37.7495C258.348 37.7495 259.1 38.6341 259.277 40.4032C259.336 40.9339 259.366 41.5678 259.366 42.305C259.366 43.0126 259.248 43.7645 259.012 44.5606C257.832 48.6295 257.257 51.3569 257.287 52.7427C257.287 53.8042 257.906 54.3349 259.144 54.3349C260.383 54.3349 261.297 53.9369 261.887 53.1408C262.476 52.3447 262.977 51.3569 263.39 50.1775C264.157 46.9047 264.864 44.2068 265.513 42.0838C266.191 39.9609 266.619 38.693 266.796 38.2803C267.091 37.5726 267.651 37.204 268.476 37.1746C269.302 37.204 270.083 37.7938 270.82 38.9437C271.558 40.0641 271.926 40.9339 271.926 41.5531C271.867 43.6171 270.585 48.8212 268.078 57.1655C269.995 55.6617 271.897 53.8189 273.784 51.637C274.432 50.8704 274.978 50.2365 275.42 49.7352C275.862 49.2045 276.216 48.9391 276.482 48.9391C276.894 48.9391 277.101 49.4109 277.101 50.3544C277.101 52.212 276.054 54.3791 273.961 56.8559C271.897 59.3326 269.361 61.2639 266.353 62.6497C266 63.8291 265.616 64.9496 265.204 66.011C264.791 67.0725 264.26 68.0013 263.611 68.7974C262.196 70.5075 260.044 71.3626 257.154 71.3626C255.208 71.3626 253.542 70.8024 252.156 69.6819C250.8 68.5615 250.122 67.1609 250.122 65.4803C250.122 64.5368 250.432 63.7849 251.051 63.2247C251.699 62.6645 252.569 62.1927 253.66 61.8094C254.781 61.4556 256.078 61.1312 257.552 60.8364C259.026 60.571 260.604 60.2319 262.285 59.8191C262.697 58.05 262.977 56.7822 263.125 56.0156ZM257.11 67.957C258.496 67.957 259.749 66.7481 260.869 64.3304C259.808 64.5368 258.864 64.6842 258.039 64.7726C257.213 64.8906 256.505 64.9938 255.916 65.0822C254.736 65.2591 254.161 65.5687 254.191 66.011C254.191 66.5712 254.515 67.043 255.164 67.4263C255.842 67.8096 256.491 67.9865 257.11 67.957Z" fill="#B3D968"/>
<path d="M288.651 40.5801C288.651 38.6046 290.184 37.6168 293.251 37.6168C294.017 37.6168 294.489 37.8675 294.666 38.3687C294.873 38.87 294.976 39.6366 294.976 40.6686C294.976 42.1133 294.651 44.3542 294.003 47.3912C293.354 50.4281 293.044 52.4773 293.074 53.5388C293.074 54.0401 293.236 54.2907 293.56 54.2907C294.003 54.2907 294.548 54.0106 295.197 53.4504C295.846 52.8901 296.494 52.2857 297.143 51.637C297.792 50.9589 298.381 50.3397 298.912 49.7795C299.472 49.2192 299.856 48.9391 300.062 48.9391C300.475 48.9391 300.681 49.4404 300.681 50.4429C300.681 52.5068 299.664 54.4971 297.629 56.4136C294.209 58.4186 292.042 59.4211 291.128 59.4211C291.039 59.4211 290.966 59.4064 290.907 59.3769C289.786 59.3769 288.99 59.0083 288.518 58.2712C288.076 57.534 287.796 56.6053 287.678 55.4848C287.088 56.5758 286.278 57.5193 285.246 58.3154C284.214 59.082 283.034 59.4653 281.707 59.4653C279.378 59.4653 277.58 59.023 276.312 58.1385C275.073 57.2539 274.454 55.9418 274.454 54.2022C274.454 53.4356 274.557 52.728 274.764 52.0793C275 51.4306 275.368 50.6345 275.869 49.691L277.152 38.811C278.066 38.1033 279.378 37.7495 281.088 37.7495C282.445 37.7495 283.211 38.6341 283.388 40.4032C283.536 41.848 283.462 43.1453 283.167 44.2952C282.902 45.4157 282.533 46.8457 282.061 48.5853C281.589 50.2954 281.354 51.8139 281.354 53.1408C281.354 54.2022 282.017 54.733 283.344 54.733C284.789 54.733 286.042 53.4651 287.103 50.9294C287.929 48.9834 288.489 46.8162 288.784 44.4279C288.754 44.192 288.725 43.8972 288.695 43.5434C288.695 43.16 288.681 42.7915 288.651 42.4377C288.651 42.0838 288.651 41.73 288.651 41.3762V40.5801Z" fill="#B3D968"/>
<path d="M304.936 51.8139L305.201 57.2097C305.201 57.9174 304.833 58.5513 304.096 59.1115C303.358 59.6717 302.356 59.9518 301.088 59.9518C300.351 59.9518 299.835 59.5685 299.54 58.8019C299.275 58.0353 299.142 56.9149 299.142 55.4406C299.142 52.3447 299.29 49.9269 299.584 48.1873C299.909 46.4182 300.528 44.6343 301.442 42.8357C300.086 41.5384 299.407 40.4179 299.407 39.4744C299.407 37.4989 300.469 36.5111 302.592 36.5111C303.683 36.5111 304.641 37.0861 305.467 38.236C306.056 39.0321 306.484 39.9609 306.749 41.0224C307.162 41.1698 307.678 41.2435 308.297 41.2435C309.152 41.2435 310.14 40.9634 311.26 40.4032L312.41 39.8282C312.764 39.6513 313.074 39.5629 313.339 39.5629C314.194 39.5629 315.049 40.816 315.904 43.3222C315.639 44.4721 315.344 45.5778 315.02 46.6393C314.725 47.7008 314.371 48.9834 313.958 50.4871C313.546 51.9908 313.324 53.0081 313.295 53.5388C313.295 54.0401 313.457 54.2907 313.781 54.2907C314.224 54.2907 314.769 54.0106 315.418 53.4504C316.067 52.8901 316.715 52.2857 317.364 51.637C318.013 50.9589 318.602 50.3397 319.133 49.7795C319.693 49.2192 320.077 48.9391 320.283 48.9391C320.696 48.9391 320.902 49.4404 320.902 50.4429C320.902 52.4773 320.003 54.4823 318.204 56.4578C316.435 58.4333 314.401 59.4064 312.101 59.3769C310.745 59.3769 309.727 58.8314 309.049 57.7404C308.371 56.6495 308.017 55.3227 307.988 53.7599C307.988 50.664 308.681 47.7302 310.066 44.9586C309.418 45.224 308.681 45.3567 307.855 45.3567C307.059 45.3567 306.484 45.3272 306.13 45.2682C305.865 46.3887 305.599 47.5238 305.334 48.6738C305.069 49.7942 304.936 50.8409 304.936 51.8139Z" fill="#B3D968"/>
<path d="M323.999 59.3769C321.051 59.3769 319.577 56.62 319.577 51.1063C319.577 48.0988 319.945 45.3714 320.682 42.9242C321.832 39.1501 323.13 37.263 324.574 37.263C325.429 37.263 326.108 37.838 326.609 38.9879C327.022 39.8725 327.213 40.7423 327.184 41.5973C327.184 42.7767 326.83 44.8554 326.122 47.8334C325.444 50.4281 325.105 52.0351 325.105 52.6543C325.105 53.2734 325.253 53.701 325.547 53.9369C325.872 54.1727 326.24 54.2907 326.653 54.2907C327.095 54.2907 327.641 54.0106 328.29 53.4504C328.938 52.8901 329.587 52.2857 330.236 51.637C330.884 50.9589 331.474 50.3397 332.005 49.7795C332.565 49.2192 332.948 48.9391 333.155 48.9391C333.567 48.9391 333.774 49.4404 333.774 50.4429C333.774 52.5068 332.727 54.5266 330.634 56.5021C328.57 58.4481 326.358 59.4064 323.999 59.3769ZM325.813 33.6806C325.017 32.5012 324.619 31.2333 324.619 29.877C324.619 28.5207 324.825 27.4002 325.238 26.5157C325.68 25.6017 326.093 24.9382 326.476 24.5254C326.86 24.0832 327.302 23.862 327.803 23.862C328.629 23.862 329.381 24.4812 330.059 25.7196C330.737 26.9285 331.076 27.9457 331.076 28.7713C331.076 30.3045 330.53 31.5134 329.439 32.398C328.378 33.253 327.169 33.6806 325.813 33.6806Z" fill="#B3D968"/>
<path d="M337.445 37.1746C338.507 37.1746 339.509 38.1918 340.453 40.2263C341.839 38.7815 343.549 38.0591 345.583 38.0591C347.647 38.0591 349.195 38.5161 350.227 39.4302C351.259 40.3147 351.775 41.5826 351.775 43.2338C351.775 44.8554 351.554 46.5066 351.112 48.1873C350.699 49.8679 350.389 51.0768 350.183 51.8139C350.006 52.5216 349.918 53.1113 349.918 53.583C349.918 54.0548 350.08 54.2907 350.404 54.2907C350.846 54.2907 351.392 54.0106 352.041 53.4504C352.689 52.8901 353.338 52.2857 353.987 51.637C354.635 50.9589 355.225 50.3397 355.756 49.7795C356.316 49.2192 356.699 48.9391 356.906 48.9391C357.318 48.9391 357.525 49.4404 357.525 50.4429C357.525 52.5068 356.507 54.4971 354.473 56.4136C351.053 58.4186 348.871 59.4211 347.927 59.4211C347.839 59.4211 347.78 59.4064 347.75 59.3769C345.392 59.3769 344.212 57.4898 344.212 53.7157C344.212 52.094 344.36 50.605 344.654 49.2487C344.979 47.8924 345.215 46.9047 345.362 46.2855C345.51 45.6663 345.583 45.0323 345.583 44.3837C345.583 43.3222 344.964 42.7915 343.726 42.7915C342.517 42.7915 341.352 43.7055 340.232 45.5336C339.141 47.3322 338.404 49.2045 338.02 51.1505V51.4601C338.02 52.4626 338.168 53.4946 338.463 54.556C338.787 55.6175 338.949 56.3546 338.949 56.7674C338.949 57.7699 337.696 58.7577 335.19 59.7307C334.806 59.8781 334.467 59.9518 334.173 59.9518C333.435 59.9518 332.919 59.5685 332.625 58.8019C332.359 58.0353 332.226 56.8411 332.226 55.2195C332.226 51.0326 332.389 48.0103 332.713 46.1528C333.155 43.3812 334.158 40.8012 335.72 38.4129C336.251 37.5874 336.826 37.1746 337.445 37.1746Z" fill="#B3D968"/>
<path d="M382.474 48.8064C383.005 48.8064 383.27 49.4846 383.27 50.8409C383.27 51.578 382.961 52.4773 382.341 53.5388C381.722 54.5708 380.911 55.5291 379.909 56.4136C378.936 57.2687 377.845 57.9763 376.636 58.5365C375.427 59.0968 374.248 59.3769 373.098 59.3769C371.535 59.3769 370.488 58.0058 369.958 55.2637C369.191 56.5315 368.188 57.5783 366.95 58.4039C365.712 59.2 364.046 59.598 361.952 59.598C359.888 59.598 358.222 58.9493 356.955 57.652C355.687 56.3546 355.068 54.7772 355.097 52.9196C355.097 47.9071 356.763 43.9561 360.095 41.0666C361.51 39.8577 362.822 39.0616 364.031 38.6783C365.269 38.295 366.567 38.1033 367.923 38.1033C369.279 38.1033 370.385 38.3392 371.24 38.811C371.653 37.9559 372.125 37.5284 372.655 37.5284C373.687 37.5284 374.66 37.9854 375.574 38.8994C376.518 39.784 376.99 40.6243 376.99 41.4204C376.577 42.3934 375.973 43.5581 375.176 44.9144C374.941 46.2707 374.823 48.1725 374.823 50.6198C374.823 53.067 375.132 54.2907 375.751 54.2907C376.518 54.2907 378.376 52.7575 381.324 49.691C381.855 49.1013 382.238 48.8064 382.474 48.8064ZM361.599 51.4601C361.599 53.7305 362.439 54.8656 364.119 54.8656C365.918 54.8362 367.407 53.8779 368.587 51.9908C368.999 51.3422 369.338 50.5461 369.604 49.6025C369.604 46.3002 369.899 43.4696 370.488 41.1108C368.1 41.5826 366.021 42.7325 364.252 44.5606C362.483 46.3887 361.599 48.6885 361.599 51.4601Z" fill="#B3D968"/>
<path d="M143.04 92.1C142.627 92.1 142.333 91.9867 142.16 91.76C142 91.5333 141.947 91.22 142 90.82L143.9 78.84C143.967 78.4667 144.1 78.1933 144.3 78.02C144.513 77.8333 144.8 77.74 145.16 77.74C145.48 77.74 145.727 77.8133 145.9 77.96C146.087 78.0933 146.247 78.3333 146.38 78.68L149.78 87.72H149.2L155.64 78.48C155.827 78.2133 156.027 78.0267 156.24 77.92C156.453 77.8 156.72 77.74 157.04 77.74C157.427 77.74 157.707 77.8533 157.88 78.08C158.067 78.3067 158.127 78.62 158.06 79.02L156.16 91C156.107 91.36 155.973 91.6333 155.76 91.82C155.56 92.0067 155.273 92.1 154.9 92.1C154.527 92.1 154.247 91.9867 154.06 91.76C153.873 91.5333 153.807 91.22 153.86 90.82L155.32 81.62H155.78L150.32 89.44C150.173 89.6533 150.02 89.8067 149.86 89.9C149.713 89.98 149.527 90.02 149.3 90.02C149.047 90.02 148.84 89.96 148.68 89.84C148.533 89.72 148.407 89.5333 148.3 89.28L145.32 81.7H145.76L144.28 91C144.227 91.36 144.093 91.6333 143.88 91.82C143.68 92.0067 143.4 92.1 143.04 92.1ZM163.723 92.2C162.763 92.2 161.936 92.02 161.243 91.66C160.563 91.3 160.036 90.7867 159.663 90.12C159.303 89.4533 159.123 88.6733 159.123 87.78C159.123 86.9 159.263 86.1067 159.543 85.4C159.823 84.6933 160.209 84.0867 160.703 83.58C161.209 83.0733 161.789 82.6867 162.443 82.42C163.096 82.1533 163.803 82.02 164.563 82.02C165.523 82.02 166.343 82.2 167.023 82.56C167.716 82.92 168.243 83.4333 168.603 84.1C168.976 84.7533 169.163 85.5333 169.163 86.44C169.163 87.32 169.023 88.1133 168.743 88.82C168.463 89.5267 168.069 90.1333 167.563 90.64C167.069 91.1467 166.496 91.5333 165.843 91.8C165.189 92.0667 164.483 92.2 163.723 92.2ZM163.783 90.3C164.396 90.3 164.909 90.1267 165.323 89.78C165.749 89.4333 166.076 88.96 166.303 88.36C166.529 87.76 166.643 87.0933 166.643 86.36C166.643 85.5733 166.449 84.9733 166.063 84.56C165.689 84.1333 165.169 83.92 164.503 83.92C163.903 83.92 163.389 84.0933 162.963 84.44C162.536 84.7867 162.209 85.26 161.983 85.86C161.756 86.4467 161.643 87.1133 161.643 87.86C161.643 88.6467 161.829 89.2533 162.203 89.68C162.589 90.0933 163.116 90.3 163.783 90.3ZM171.686 92.16C171.3 92.16 171.013 92.04 170.826 91.8C170.653 91.5467 170.6 91.1933 170.666 90.74L171.866 83.26C171.933 82.86 172.08 82.56 172.306 82.36C172.546 82.16 172.86 82.06 173.246 82.06C173.633 82.06 173.913 82.1867 174.086 82.44C174.273 82.68 174.333 83.02 174.266 83.46L174.066 84.76L173.926 84.26C174.3 83.5 174.786 82.94 175.386 82.58C176 82.2067 176.653 82.02 177.346 82.02C178.093 82.02 178.706 82.22 179.186 82.62C179.666 83.0067 179.986 83.5867 180.146 84.36L179.886 84.24C180.233 83.52 180.713 82.9733 181.326 82.6C181.94 82.2133 182.653 82.02 183.466 82.02C184.16 82.02 184.74 82.1667 185.206 82.46C185.686 82.7533 186.02 83.2067 186.206 83.82C186.406 84.4333 186.433 85.2133 186.286 86.16L185.526 90.96C185.473 91.3467 185.326 91.6467 185.086 91.86C184.86 92.06 184.546 92.16 184.146 92.16C183.733 92.16 183.433 92.04 183.246 91.8C183.06 91.5467 183 91.1933 183.066 90.74L183.786 86.12C183.893 85.4133 183.84 84.88 183.626 84.52C183.413 84.16 183.033 83.98 182.486 83.98C181.833 83.98 181.293 84.2267 180.866 84.72C180.44 85.2 180.153 85.8733 180.006 86.74L179.346 90.96C179.293 91.3467 179.14 91.6467 178.886 91.86C178.646 92.06 178.326 92.16 177.926 92.16C177.526 92.16 177.233 92.04 177.046 91.8C176.86 91.5467 176.8 91.1933 176.866 90.74L177.606 86.12C177.713 85.4133 177.66 84.88 177.446 84.52C177.233 84.16 176.853 83.98 176.306 83.98C175.653 83.98 175.106 84.2267 174.666 84.72C174.24 85.2 173.953 85.8733 173.806 86.74L173.146 90.96C173.026 91.76 172.54 92.16 171.686 92.16ZM198.175 92.2C197.268 92.2 196.482 92.0667 195.815 91.8C195.162 91.52 194.655 91.1333 194.295 90.64C193.948 90.1333 193.775 89.5533 193.775 88.9C193.775 88.38 193.862 87.8933 194.035 87.44C194.222 86.9867 194.475 86.5667 194.795 86.18C195.128 85.7933 195.508 85.44 195.935 85.12C196.375 84.7867 196.842 84.4867 197.335 84.22L198.075 83.82L197.635 84.36C197.222 83.88 196.922 83.4067 196.735 82.94C196.548 82.46 196.455 81.9933 196.455 81.54C196.455 80.7933 196.642 80.1333 197.015 79.56C197.388 78.9733 197.895 78.52 198.535 78.2C199.188 77.8667 199.935 77.7 200.775 77.7C201.735 77.7 202.508 77.96 203.095 78.48C203.695 78.9867 203.995 79.6533 203.995 80.48C203.995 81.1333 203.822 81.72 203.475 82.24C203.142 82.7467 202.695 83.2067 202.135 83.62C201.588 84.02 200.995 84.3933 200.355 84.74L200.395 84.14L203.235 87.76H202.755C203.022 87.3867 203.242 87.04 203.415 86.72C203.588 86.4 203.742 86.0467 203.875 85.66C204.022 85.2733 204.175 84.8133 204.335 84.28C204.428 83.9733 204.562 83.7467 204.735 83.6C204.922 83.4533 205.168 83.38 205.475 83.38C205.835 83.38 206.102 83.4733 206.275 83.66C206.462 83.8467 206.502 84.12 206.395 84.48C206.195 85.2 205.988 85.8267 205.775 86.36C205.562 86.88 205.315 87.3667 205.035 87.82C204.755 88.26 204.422 88.7267 204.035 89.22L204.055 88.6L205.635 90.5C205.862 90.7667 205.962 91.0333 205.935 91.3C205.922 91.5533 205.815 91.7667 205.615 91.94C205.415 92.1 205.142 92.18 204.795 92.18C204.622 92.18 204.442 92.1533 204.255 92.1C204.068 92.06 203.908 91.9533 203.775 91.78L202.515 90.18L203.015 90.2C202.362 90.8267 201.628 91.32 200.815 91.68C200.002 92.0267 199.122 92.2 198.175 92.2ZM198.555 90.22C199.222 90.22 199.822 90.1 200.355 89.86C200.888 89.6067 201.388 89.2333 201.855 88.74L201.735 89.38L198.315 85.12L199.275 85.24L198.655 85.58C198.255 85.8067 197.868 86.06 197.495 86.34C197.135 86.6067 196.842 86.92 196.615 87.28C196.388 87.6267 196.275 88.0467 196.275 88.54C196.275 89.0733 196.468 89.4867 196.855 89.78C197.242 90.0733 197.808 90.22 198.555 90.22ZM200.635 79.48C200.062 79.48 199.608 79.6533 199.275 80C198.942 80.3333 198.775 80.78 198.775 81.34C198.775 81.5533 198.802 81.76 198.855 81.96C198.922 82.1467 199.022 82.3533 199.155 82.58C199.302 82.8067 199.495 83.0733 199.735 83.38L199.235 83.3C199.835 83.02 200.328 82.7467 200.715 82.48C201.115 82.2 201.408 81.9067 201.595 81.6C201.795 81.28 201.895 80.9333 201.895 80.56C201.895 80.2 201.782 79.9333 201.555 79.76C201.342 79.5733 201.035 79.48 200.635 79.48ZM215.056 92C214.603 92 214.263 91.8733 214.036 91.62C213.823 91.3533 213.75 90.9933 213.816 90.54L215.616 79.14C215.683 78.7267 215.836 78.42 216.076 78.22C216.33 78.0067 216.663 77.9 217.076 77.9H221.616C222.656 77.9 223.503 78.0467 224.156 78.34C224.81 78.62 225.29 79.0133 225.596 79.52C225.903 80.0133 226.056 80.5867 226.056 81.24C226.056 82.2533 225.736 83.0867 225.096 83.74C224.456 84.3933 223.616 84.8 222.576 84.96V84.64C223.456 84.8 224.143 85.16 224.636 85.72C225.13 86.28 225.376 86.9733 225.376 87.8C225.376 89.1733 224.923 90.22 224.016 90.94C223.11 91.6467 221.856 92 220.256 92H215.056ZM216.336 90.06H220.136C221.056 90.06 221.743 89.8533 222.196 89.44C222.663 89.0267 222.896 88.4333 222.896 87.66C222.896 87.0467 222.69 86.5867 222.276 86.28C221.876 85.9733 221.29 85.82 220.516 85.82H217.016L216.336 90.06ZM217.336 83.88H220.756C221.65 83.88 222.343 83.68 222.836 83.28C223.33 82.88 223.576 82.3 223.576 81.54C223.576 80.9933 223.383 80.5733 222.996 80.28C222.623 79.9867 222.03 79.84 221.216 79.84H217.976L217.336 83.88ZM230.446 92.2C229.846 92.2 229.299 92.0667 228.806 91.8C228.313 91.52 227.913 91.1533 227.606 90.7C227.313 90.2467 227.166 89.74 227.166 89.18C227.166 88.4867 227.359 87.9267 227.746 87.5C228.133 87.06 228.733 86.7333 229.546 86.52C230.359 86.3067 231.399 86.2 232.666 86.2H234.266L234.046 87.64H232.786C231.999 87.64 231.373 87.68 230.906 87.76C230.439 87.84 230.106 87.98 229.906 88.18C229.706 88.38 229.606 88.66 229.606 89.02C229.606 89.4867 229.759 89.8467 230.066 90.1C230.386 90.3533 230.773 90.48 231.226 90.48C231.653 90.48 232.039 90.3933 232.386 90.22C232.733 90.0333 233.026 89.7733 233.266 89.44C233.506 89.0933 233.659 88.6867 233.726 88.22L234.106 85.84C234.213 85.2133 234.113 84.7333 233.806 84.4C233.513 84.0667 232.993 83.9 232.246 83.9C231.806 83.9 231.379 83.9467 230.966 84.04C230.553 84.12 230.126 84.26 229.686 84.46C229.433 84.5667 229.206 84.6 229.006 84.56C228.806 84.52 228.639 84.4333 228.506 84.3C228.386 84.1533 228.319 83.9867 228.306 83.8C228.293 83.6 228.346 83.4067 228.466 83.22C228.599 83.0333 228.813 82.8733 229.106 82.74C229.666 82.4867 230.246 82.3067 230.846 82.2C231.459 82.08 232.033 82.02 232.566 82.02C233.619 82.02 234.446 82.2133 235.046 82.6C235.646 82.9867 236.053 83.5133 236.266 84.18C236.479 84.8467 236.519 85.6067 236.386 86.46L235.686 90.92C235.633 91.3333 235.486 91.6467 235.246 91.86C235.019 92.06 234.713 92.16 234.326 92.16C233.966 92.16 233.693 92.0467 233.506 91.82C233.333 91.58 233.279 91.2333 233.346 90.78L233.546 89.52L233.686 89.92C233.499 90.44 233.233 90.8733 232.886 91.22C232.553 91.5533 232.173 91.8 231.746 91.96C231.333 92.12 230.899 92.2 230.446 92.2ZM243.883 92.2C243.137 92.2 242.47 92.02 241.883 91.66C241.31 91.3 240.91 90.7667 240.683 90.06L240.863 89.56L240.663 90.9C240.61 91.3133 240.47 91.6267 240.243 91.84C240.03 92.0533 239.717 92.16 239.303 92.16C238.917 92.16 238.623 92.0333 238.423 91.78C238.237 91.5133 238.177 91.1533 238.243 90.7L240.103 79C240.17 78.5867 240.323 78.2733 240.563 78.06C240.803 77.8467 241.13 77.74 241.543 77.74C241.93 77.74 242.217 77.8667 242.403 78.12C242.59 78.3733 242.65 78.7333 242.583 79.2L241.803 84.06H241.603C241.963 83.42 242.443 82.92 243.043 82.56C243.643 82.2 244.33 82.02 245.103 82.02C245.85 82.02 246.497 82.1933 247.043 82.54C247.603 82.8733 248.037 83.36 248.343 84C248.65 84.6267 248.803 85.3733 248.803 86.24C248.803 87.3467 248.603 88.3533 248.203 89.26C247.817 90.1533 247.257 90.8667 246.523 91.4C245.79 91.9333 244.91 92.2 243.883 92.2ZM243.423 90.3C244.037 90.3 244.55 90.1267 244.963 89.78C245.39 89.4333 245.717 88.96 245.943 88.36C246.17 87.76 246.283 87.0933 246.283 86.36C246.283 85.5733 246.09 84.9733 245.703 84.56C245.33 84.1333 244.81 83.92 244.143 83.92C243.543 83.92 243.03 84.0933 242.603 84.44C242.177 84.7867 241.85 85.26 241.623 85.86C241.397 86.4467 241.283 87.1133 241.283 87.86C241.283 88.6467 241.47 89.2533 241.843 89.68C242.23 90.0933 242.757 90.3 243.423 90.3ZM251.8 95.76C251.48 95.76 251.234 95.6867 251.06 95.54C250.887 95.3933 250.794 95.2 250.78 94.96C250.767 94.7333 250.84 94.4867 251 94.22L252.9 91.1L252.74 92.14L250.44 83.78C250.347 83.4467 250.334 83.1533 250.4 82.9C250.467 82.6333 250.6 82.4267 250.8 82.28C251.014 82.1333 251.274 82.06 251.58 82.06C251.927 82.06 252.187 82.1467 252.36 82.32C252.547 82.48 252.687 82.7733 252.78 83.2L254.38 89.82H253.76L257.68 82.96C257.867 82.64 258.06 82.4133 258.26 82.28C258.46 82.1333 258.72 82.06 259.04 82.06C259.36 82.06 259.607 82.1333 259.78 82.28C259.967 82.4267 260.067 82.62 260.08 82.86C260.107 83.0867 260.04 83.34 259.88 83.62L253.16 94.86C252.974 95.18 252.78 95.4067 252.58 95.54C252.38 95.6867 252.12 95.76 251.8 95.76ZM273.137 92.2C271.884 92.2 270.771 91.9667 269.797 91.5C268.837 91.02 268.077 90.3067 267.517 89.36C266.971 88.4133 266.697 87.2267 266.697 85.8C266.697 84.6533 266.864 83.5933 267.197 82.62C267.544 81.6333 268.037 80.7733 268.677 80.04C269.331 79.3067 270.131 78.7333 271.077 78.32C272.024 77.9067 273.097 77.7 274.297 77.7C275.071 77.7 275.811 77.8 276.517 78C277.224 78.2 277.844 78.4933 278.377 78.88C278.617 79.0533 278.764 79.26 278.817 79.5C278.884 79.7267 278.884 79.9533 278.817 80.18C278.751 80.4067 278.637 80.6067 278.477 80.78C278.331 80.94 278.151 81.04 277.937 81.08C277.724 81.1067 277.504 81.0467 277.277 80.9C276.757 80.5533 276.251 80.3133 275.757 80.18C275.264 80.0467 274.751 79.98 274.217 79.98C273.191 79.98 272.317 80.2333 271.597 80.74C270.891 81.2333 270.351 81.9133 269.977 82.78C269.604 83.6467 269.417 84.6267 269.417 85.72C269.417 86.7067 269.564 87.5133 269.857 88.14C270.164 88.7533 270.611 89.2067 271.197 89.5C271.797 89.78 272.524 89.92 273.377 89.92C273.871 89.92 274.344 89.86 274.797 89.74C275.251 89.62 275.717 89.42 276.197 89.14C276.464 88.98 276.704 88.92 276.917 88.96C277.144 88.9867 277.331 89.08 277.477 89.24C277.624 89.4 277.717 89.5933 277.757 89.82C277.811 90.0333 277.791 90.2533 277.697 90.48C277.617 90.6933 277.457 90.88 277.217 91.04C276.631 91.4267 275.971 91.72 275.237 91.92C274.504 92.1067 273.804 92.2 273.137 92.2ZM282.38 92.2C281.78 92.2 281.233 92.0667 280.74 91.8C280.246 91.52 279.846 91.1533 279.54 90.7C279.246 90.2467 279.1 89.74 279.1 89.18C279.1 88.4867 279.293 87.9267 279.68 87.5C280.066 87.06 280.666 86.7333 281.48 86.52C282.293 86.3067 283.333 86.2 284.6 86.2H286.2L285.98 87.64H284.72C283.933 87.64 283.306 87.68 282.84 87.76C282.373 87.84 282.04 87.98 281.84 88.18C281.64 88.38 281.54 88.66 281.54 89.02C281.54 89.4867 281.693 89.8467 282 90.1C282.32 90.3533 282.706 90.48 283.16 90.48C283.586 90.48 283.973 90.3933 284.32 90.22C284.666 90.0333 284.96 89.7733 285.2 89.44C285.44 89.0933 285.593 88.6867 285.66 88.22L286.04 85.84C286.146 85.2133 286.046 84.7333 285.74 84.4C285.446 84.0667 284.926 83.9 284.18 83.9C283.74 83.9 283.313 83.9467 282.9 84.04C282.486 84.12 282.06 84.26 281.62 84.46C281.366 84.5667 281.14 84.6 280.94 84.56C280.74 84.52 280.573 84.4333 280.44 84.3C280.32 84.1533 280.253 83.9867 280.24 83.8C280.226 83.6 280.28 83.4067 280.4 83.22C280.533 83.0333 280.746 82.8733 281.04 82.74C281.6 82.4867 282.18 82.3067 282.78 82.2C283.393 82.08 283.966 82.02 284.5 82.02C285.553 82.02 286.38 82.2133 286.98 82.6C287.58 82.9867 287.986 83.5133 288.2 84.18C288.413 84.8467 288.453 85.6067 288.32 86.46L287.62 90.92C287.566 91.3333 287.42 91.6467 287.18 91.86C286.953 92.06 286.646 92.16 286.26 92.16C285.9 92.16 285.626 92.0467 285.44 91.82C285.266 91.58 285.213 91.2333 285.28 90.78L285.48 89.52L285.62 89.92C285.433 90.44 285.166 90.8733 284.82 91.22C284.486 91.5533 284.106 91.8 283.68 91.96C283.266 92.12 282.833 92.2 282.38 92.2ZM291.217 92.16C290.817 92.16 290.524 92.04 290.337 91.8C290.164 91.5467 290.11 91.1933 290.177 90.74L291.357 83.26C291.424 82.86 291.577 82.56 291.817 82.36C292.057 82.16 292.37 82.06 292.757 82.06C293.144 82.06 293.424 82.18 293.597 82.42C293.784 82.66 293.844 83.0067 293.777 83.46L293.597 84.58H293.397C293.664 83.7933 294.104 83.1867 294.717 82.76C295.33 82.32 296.057 82.0733 296.897 82.02C297.27 81.9933 297.517 82.0467 297.637 82.18C297.77 82.3133 297.837 82.5333 297.837 82.84C297.837 83.28 297.737 83.6067 297.537 83.82C297.337 84.02 297.024 84.14 296.597 84.18L296.017 84.24C295.124 84.3333 294.484 84.6067 294.097 85.06C293.71 85.5 293.45 86.12 293.317 86.92L292.677 90.96C292.624 91.36 292.47 91.66 292.217 91.86C291.977 92.06 291.644 92.16 291.217 92.16ZM302.733 92.2C301.746 92.2 300.886 92.02 300.153 91.66C299.433 91.2867 298.873 90.7667 298.473 90.1C298.073 89.4333 297.873 88.6533 297.873 87.76C297.873 86.6667 298.099 85.6933 298.553 84.84C299.019 83.9733 299.659 83.2867 300.473 82.78C301.286 82.2733 302.219 82.02 303.273 82.02C304.086 82.02 304.766 82.16 305.313 82.44C305.859 82.72 306.293 83.1 306.613 83.58C306.933 84.0467 307.146 84.58 307.253 85.18C307.359 85.78 307.379 86.3933 307.313 87.02C307.286 87.3 307.213 87.48 307.093 87.56C306.973 87.64 306.806 87.68 306.593 87.68H299.873L300.073 86.24H305.673L305.333 86.54C305.413 86.0067 305.393 85.5333 305.273 85.12C305.153 84.6933 304.926 84.3533 304.593 84.1C304.273 83.8467 303.826 83.72 303.253 83.72C302.666 83.72 302.173 83.8533 301.773 84.12C301.373 84.3867 301.059 84.7333 300.833 85.16C300.606 85.5733 300.453 86.02 300.373 86.5L300.273 87.12C300.113 88.0933 300.273 88.8667 300.753 89.44C301.233 90.0133 301.966 90.3 302.953 90.3C303.353 90.3 303.766 90.26 304.193 90.18C304.619 90.0867 305.006 89.94 305.353 89.74C305.606 89.5933 305.826 89.5333 306.013 89.56C306.213 89.5733 306.366 89.6467 306.473 89.78C306.593 89.9 306.666 90.0533 306.693 90.24C306.719 90.4133 306.686 90.6 306.593 90.8C306.513 90.9867 306.366 91.1533 306.153 91.3C305.686 91.6067 305.133 91.8333 304.493 91.98C303.853 92.1267 303.266 92.2 302.733 92.2Z" fill="#F6C346"/>
</g>
<defs>
<clipPath id="clip0_84_129">
<rect width="383.27" height="121" fill="white"/>
</clipPath>
</defs>
</svg>
