<svg width="217" height="63" viewBox="0 0 217 63" fill="none" xmlns="http://www.w3.org/2000/svg">
<path fill-rule="evenodd" clip-rule="evenodd" d="M51.5295 37.3536C53.0091 31.2305 52.3887 22.7396 46.4933 18.6015C43.016 16.1613 38.3065 14.8015 32.3649 14.5223C37.0484 5.8759 36.6642 1.13441 31.2122 0.297854C23.0343 -0.957787 19.1805 9.59745 22.9291 13.7904C24.5103 15.5592 22.0182 16.3448 18.4954 17.4553C14.3103 18.7746 8.67061 20.5525 6.67838 24.9823C4.70065 29.3788 4.0931 34.4587 4.85572 40.222C4.93282 37.6973 5.54742 35.6337 6.93122 32.9079C10.1191 26.2884 16.1369 21.8624 21.1434 18.0087C26.697 13.7337 31.1435 10.3111 29.6959 6.02052C28.6925 3.04638 26.3848 3.60614 25.3316 4.84336C21.6753 9.1388 28.4573 12.0217 26.2756 6.02052C27.0422 6.25596 28.7527 8.19707 26.8062 9.72659C24.8604 11.2569 21.9707 7.3146 24.5064 4.49021C27.0422 1.66662 29.9584 3.62696 30.6985 6.02052C31.9884 10.1884 26.6157 14.5409 20.5317 19.4695C15.394 23.6316 9.74902 28.2047 7.18086 33.4244C5.7559 36.3206 4.88191 38.665 4.92027 41.9239C4.94501 42.3748 4.98815 42.8265 5.04969 43.279C5.02688 43.2641 5.00416 43.2493 4.98152 43.2348C5.00124 43.4828 5.02573 43.7362 5.0551 43.9957C5.02551 43.7344 4.9989 43.4796 4.97536 43.2309C3.35841 42.1944 2.17565 42.1463 1.42708 43.0864C0.208574 44.6159 0.31694 49.0876 5.62924 51.0879C6.61728 51.5448 7.55398 51.842 8.43937 51.9794C8.48811 52.0559 8.53737 52.1324 8.58712 52.2088C7.40206 53.0043 6.61276 54.129 6.44398 55.6598C5.618 63.1512 20.9914 62.955 24.2937 60.9546C25.0017 61.7394 25.6704 61.7001 26.7709 61.3077C27.8722 60.9154 25.9842 57.1893 25.3164 57.9348C24.9329 58.3619 25.4805 59.2535 25.9136 59.9586C26.2357 60.4831 26.4944 60.9044 26.2595 60.9546C25.6832 61.19 25.1984 60.9156 24.805 60.1314C23.4945 60.8243 21.2009 61.2885 17.9243 61.524C13.0101 61.8763 7.38796 59.739 7.89849 55.6598C9.35379 47.3443 23.727 52.5399 26.2595 54.0686C26.2949 54.0899 26.3365 54.1146 26.3835 54.1426L26.3844 54.1431C27.035 54.5298 28.7273 55.5356 29.5346 56.8537C30.4337 58.3224 30.7611 59.4332 30.9659 60.1279C31.1463 60.74 31.2315 61.0289 31.5285 60.9546C32.5831 60.6914 31.4721 56.6472 27.6758 53.7212C31.6655 51.8971 35.4844 51.4246 39.1325 52.3037C44.7057 53.6474 47.7576 62.4281 34.0899 60.4429C33.1171 61.1484 39.5451 63.5756 45.266 59.4716C50.9533 55.3918 40.055 46.6002 26.843 53.1357C23.4101 51.0336 14.2888 49.4154 9.47848 51.7048C7.48418 48.797 6.23868 45.9509 5.74198 43.1664C7.02843 31.5267 14.9593 24.6635 29.5346 22.5767C37.9174 22.313 40.5448 30.797 42.5511 37.2752C43.7232 41.0598 44.6832 44.1599 46.455 44.4313C46.4288 44.8787 46.3993 45.3325 46.3665 45.7925C48.9876 39.9879 51.2157 37.7131 53.0506 38.9682C55.8031 40.8508 51.4781 49.284 45.266 52.3038C51.2028 51.0882 58.7121 43.2829 53.0506 37.948C52.5918 37.4902 52.0847 37.2921 51.5295 37.3536ZM2.56772 44.1058C3.43065 43.5709 4.33383 43.7295 5.27728 44.5817C5.6834 46.4862 6.4134 48.4045 7.46729 50.3366C2.31458 48.4202 0.681394 46.3433 2.56772 44.1058Z" fill="#A2A2A2"/>
<path d="M28.4686 35.4229C27.1714 35.2467 28.5184 32.6337 31.2403 32.4415C34.0225 32.2461 35.713 34.0695 34.7787 34.4812C34.1301 34.7678 32.8329 32.4808 31.2403 33.4225C29.6478 34.3642 29.7658 35.5991 28.4686 35.4229Z" fill="#A2A2A2"/>
<path d="M20.0153 36.0396C21.2145 35.5142 19.1989 33.3721 16.5291 33.9335C13.7999 34.5077 12.677 36.7242 13.6884 36.8644C14.3915 36.9621 15.0088 34.4076 16.7989 34.876C18.5897 35.3453 18.8169 36.5649 20.0153 36.0396Z" fill="#A2A2A2"/>
<path d="M29.785 45.8133C29.4896 47.314 31.9965 47.2259 33.4999 47.0201C35.0042 46.8135 38.13 45.7845 36.832 44.7547C35.5348 43.7248 35.3871 45.6668 33.2054 45.4898C31.0228 45.3136 30.0796 44.3134 29.785 45.8133Z" fill="#A2A2A2"/>
<path d="M13.1755 46.5631C12.9355 47.8444 14.9743 47.7691 16.1976 47.5929C17.421 47.4176 19.9639 46.5383 18.9084 45.659C17.8528 44.7806 17.7332 46.4374 15.9576 46.2869C14.1829 46.1363 13.4155 45.2827 13.1755 46.5631Z" fill="#A2A2A2"/>
<path d="M24.3587 50.3376C24.8235 49.3774 25.273 50.7788 26.2756 50.7788C27.2782 50.7788 27.7205 49.8082 28.2511 50.3376C28.7825 50.8669 27.4845 52.2643 26.2756 52.0288C25.0667 51.7934 24.1436 50.782 24.3587 50.3376Z" fill="#A2A2A2"/>
<path d="M38.8079 50.0014C40.4528 50.0014 41.7862 49.2277 41.7862 48.2732C41.7862 47.3187 40.4528 46.545 38.8079 46.545C37.1631 46.545 35.8296 47.3187 35.8296 48.2732C35.8296 49.2277 37.1631 50.0014 38.8079 50.0014Z" fill="#A2A2A2"/>
<path d="M12.0624 50.5897C13.3653 50.5897 14.4214 49.9405 14.4214 49.1397C14.4214 48.3388 13.3653 47.6896 12.0624 47.6896C10.7596 47.6896 9.70339 48.3388 9.70339 49.1397C9.70339 49.9405 10.7596 50.5897 12.0624 50.5897Z" fill="#A2A2A2"/>
<path d="M28.4285 58.9865C27.8008 57.5867 26.4378 56.7451 26.787 56.6482C27.1241 56.5545 28.357 57.1511 29.0915 58.1481C29.9576 59.3236 30.2643 60.9428 29.5346 61.0117C28.8218 61.079 29.1108 60.5112 28.4285 58.9865Z" fill="#A2A2A2"/>
<path d="M71.5545 52.4325C72.2171 52.61 72.7258 52.9531 73.0808 53.4619C73.4358 53.9589 73.6132 54.5564 73.6132 55.2545C73.6132 56.3903 73.2109 57.2718 72.4064 57.8989C71.6136 58.526 70.5251 58.8396 69.1407 58.8396H64.473C64.1299 58.8396 63.8637 58.7449 63.6744 58.5556C63.4969 58.3544 63.42 58.0764 63.4436 57.7214L64.26 47.4098C64.2837 47.0667 64.3961 46.8005 64.5972 46.6112C64.8102 46.4219 65.0883 46.3272 65.4314 46.3272H69.6554C70.9924 46.3272 72.01 46.6053 72.7081 47.1614C73.418 47.7175 73.773 48.4747 73.773 49.4331C73.773 50.143 73.5837 50.7524 73.205 51.2612C72.8382 51.7699 72.2881 52.1604 71.5545 52.4325ZM66.443 48.102L66.1591 51.5984H69.1052C69.9335 51.5984 70.5487 51.4505 70.951 51.1547C71.3533 50.847 71.5545 50.3738 71.5545 49.7348C71.5545 48.6463 70.8091 48.102 69.3182 48.102H66.443ZM68.981 57.0648C69.8092 57.0648 70.4304 56.9109 70.8445 56.6033C71.2587 56.2957 71.4657 55.8106 71.4657 55.148C71.4657 54.5564 71.2764 54.1127 70.8978 53.8169C70.531 53.5211 69.9631 53.3732 69.194 53.3732H66.0171L65.7331 57.0648H68.981Z" fill="#A2A2A2"/>
<path d="M79.5343 49.9478C80.7056 49.9478 81.5812 50.214 82.161 50.7465C82.7408 51.2789 83.0306 52.0835 83.0306 53.1602C83.0306 53.385 83.0247 53.5566 83.0129 53.6749L82.6757 57.9167C82.652 58.248 82.5396 58.5023 82.3385 58.6798C82.1492 58.8573 81.8888 58.946 81.5576 58.946C81.2499 58.946 81.0014 58.8514 80.8121 58.6621C80.6347 58.4609 80.5577 58.2065 80.5814 57.8989L80.5992 57.5617C80.3625 58.0113 80.0312 58.3604 79.6053 58.6088C79.1793 58.8573 78.6942 58.9815 78.1499 58.9815C77.582 58.9815 77.0673 58.8751 76.6059 58.6621C76.1562 58.4373 75.8013 58.1356 75.541 57.7569C75.2807 57.3665 75.1505 56.9287 75.1505 56.4436C75.1505 55.781 75.3162 55.2545 75.6475 54.864C75.9906 54.4617 76.5349 54.1718 77.2803 53.9944C78.0257 53.805 79.0196 53.7104 80.2619 53.7104H80.9009L80.9186 53.3732C80.966 52.7816 80.8535 52.3438 80.5814 52.0598C80.3093 51.7759 79.8774 51.6339 79.2858 51.6339C78.5877 51.6339 77.7891 51.8646 76.8898 52.326C76.736 52.397 76.5881 52.4325 76.4461 52.4325C76.2331 52.4325 76.0557 52.3615 75.9137 52.2196C75.7717 52.0657 75.7007 51.8823 75.7007 51.6694C75.7007 51.5155 75.748 51.3617 75.8427 51.2079C75.9373 51.0423 76.0734 50.9062 76.2509 50.7997C76.6768 50.5394 77.1797 50.3323 77.7595 50.1785C78.3392 50.0247 78.9308 49.9478 79.5343 49.9478ZM78.7179 57.3842C79.274 57.3842 79.7413 57.189 80.12 56.7985C80.5104 56.3962 80.7293 55.8875 80.7766 55.2722L80.8121 54.8818H80.3152C79.5579 54.8818 78.9604 54.9232 78.5226 55.006C78.0967 55.0888 77.7891 55.2308 77.5997 55.4319C77.4104 55.6213 77.3158 55.8816 77.3158 56.2129C77.3158 56.5678 77.44 56.8518 77.6885 57.0648C77.9488 57.2777 78.2919 57.3842 78.7179 57.3842Z" fill="#A2A2A2"/>
<path d="M90.3613 49.9478C91.083 49.9478 91.7219 50.1194 92.278 50.4625C92.846 50.7938 93.2838 51.2789 93.5914 51.9178C93.899 52.5449 94.0528 53.2844 94.0528 54.1363C94.0528 55.0829 93.8813 55.923 93.5382 56.6566C93.195 57.3901 92.7099 57.964 92.0828 58.3781C91.4557 58.7804 90.7399 58.9815 89.9353 58.9815C89.2964 58.9815 88.7403 58.8514 88.267 58.5911C87.7937 58.3308 87.421 57.9581 87.1489 57.473L87.1134 57.8812C87.0897 58.2125 86.9714 58.4728 86.7584 58.6621C86.5454 58.8514 86.2733 58.946 85.942 58.946C85.6107 58.946 85.3504 58.8514 85.1611 58.6621C84.9836 58.4728 84.9008 58.2125 84.9126 57.8812L85.7645 47.2501C85.7764 46.9425 85.8947 46.6999 86.1195 46.5224C86.3561 46.3331 86.6401 46.2385 86.9714 46.2385C87.3027 46.2385 87.5571 46.3272 87.7346 46.5047C87.912 46.6822 87.9949 46.9188 87.983 47.2146L87.6458 51.2789C87.9298 50.853 88.3084 50.5276 88.7817 50.3028C89.2668 50.0661 89.7933 49.9478 90.3613 49.9478ZM89.5448 57.26C90.2548 57.26 90.8109 56.9938 91.2132 56.4613C91.6273 55.9171 91.8343 55.1776 91.8343 54.2428C91.8343 53.4146 91.645 52.7757 91.2664 52.326C90.8878 51.8764 90.3494 51.6516 89.6513 51.6516C88.9532 51.6516 88.3971 51.9238 87.983 52.468C87.5807 53.0123 87.3796 53.7459 87.3796 54.6688C87.3796 55.5207 87.563 56.1655 87.9298 56.6033C88.3084 57.0411 88.8468 57.26 89.5448 57.26Z" fill="#A2A2A2"/>
<path d="M101.929 50.64C102.035 50.427 102.171 50.2732 102.337 50.1785C102.503 50.072 102.68 50.0188 102.87 50.0188C103.13 50.0188 103.361 50.1075 103.562 50.285C103.775 50.4625 103.881 50.6755 103.881 50.9239C103.881 51.0778 103.84 51.2316 103.757 51.3854L98.4326 61.5195C98.3261 61.7325 98.1841 61.8863 98.0066 61.981C97.841 62.0874 97.6694 62.1407 97.4919 62.1407C97.2435 62.1407 97.0246 62.0519 96.8353 61.8745C96.6578 61.7088 96.569 61.5018 96.569 61.2533C96.569 61.0876 96.6105 60.922 96.6933 60.7563L97.8114 58.5733L95.2024 51.3322C95.1669 51.2257 95.1492 51.1251 95.1492 51.0304C95.1492 50.7465 95.2675 50.5098 95.5042 50.3205C95.7526 50.1194 96.0248 50.0188 96.3206 50.0188C96.5217 50.0188 96.6992 50.072 96.853 50.1785C97.0187 50.285 97.137 50.4448 97.208 50.6577L99.1248 56.2661L101.929 50.64Z" fill="#A2A2A2"/>
<path d="M115.521 58.9993C114.362 58.9993 113.35 58.7626 112.486 58.2894C111.634 57.8043 110.978 57.1121 110.516 56.2129C110.055 55.3136 109.824 54.2547 109.824 53.036C109.824 51.6634 110.084 50.4566 110.605 49.4154C111.126 48.3741 111.865 47.5755 112.824 47.0194C113.782 46.4514 114.9 46.1675 116.178 46.1675C117.006 46.1675 117.763 46.2799 118.45 46.5047C119.148 46.7177 119.722 47.0016 120.171 47.3566C120.514 47.5814 120.686 47.8831 120.686 48.2617C120.686 48.5221 120.603 48.7469 120.437 48.9362C120.284 49.1136 120.083 49.2024 119.834 49.2024C119.621 49.2024 119.426 49.1373 119.248 49.0072C118.396 48.3564 117.397 48.031 116.249 48.031C114.959 48.031 113.954 48.4806 113.232 49.3799C112.51 50.2673 112.149 51.4919 112.149 53.0537C112.149 54.3671 112.451 55.3787 113.054 56.0886C113.67 56.7867 114.539 57.1357 115.663 57.1357C116.681 57.1357 117.681 56.8104 118.663 56.1596C118.864 56.0413 119.053 55.9821 119.231 55.9821C119.455 55.9821 119.639 56.065 119.781 56.2306C119.923 56.3962 119.994 56.5974 119.994 56.834C119.994 57.189 119.84 57.4848 119.532 57.7214C119.083 58.1001 118.503 58.4077 117.793 58.6443C117.095 58.881 116.338 58.9993 115.521 58.9993Z" fill="#A2A2A2"/>
<path d="M125.655 49.9478C126.826 49.9478 127.702 50.214 128.282 50.7465C128.861 51.2789 129.151 52.0835 129.151 53.1602C129.151 53.385 129.145 53.5566 129.133 53.6749L128.796 57.9167C128.773 58.248 128.66 58.5023 128.459 58.6798C128.27 58.8573 128.009 58.946 127.678 58.946C127.37 58.946 127.122 58.8514 126.933 58.6621C126.755 58.4609 126.678 58.2065 126.702 57.8989L126.72 57.5617C126.483 58.0113 126.152 58.3604 125.726 58.6088C125.3 58.8573 124.815 58.9815 124.27 58.9815C123.703 58.9815 123.188 58.8751 122.726 58.6621C122.277 58.4373 121.922 58.1356 121.662 57.7569C121.401 57.3665 121.271 56.9287 121.271 56.4436C121.271 55.781 121.437 55.2545 121.768 54.864C122.111 54.4617 122.655 54.1718 123.401 53.9944C124.146 53.805 125.14 53.7104 126.383 53.7104H127.021L127.039 53.3732C127.087 52.7816 126.974 52.3438 126.702 52.0598C126.43 51.7759 125.998 51.6339 125.406 51.6339C124.708 51.6339 123.91 51.8646 123.01 52.326C122.857 52.397 122.709 52.4325 122.567 52.4325C122.354 52.4325 122.176 52.3615 122.034 52.2196C121.892 52.0657 121.821 51.8823 121.821 51.6694C121.821 51.5155 121.869 51.3617 121.963 51.2079C122.058 51.0423 122.194 50.9062 122.371 50.7997C122.797 50.5394 123.3 50.3323 123.88 50.1785C124.46 50.0247 125.051 49.9478 125.655 49.9478ZM124.838 57.3842C125.395 57.3842 125.862 57.189 126.241 56.7985C126.631 56.3962 126.85 55.8875 126.897 55.2722L126.933 54.8818H126.436C125.679 54.8818 125.081 54.9232 124.643 55.006C124.217 55.0888 123.91 55.2308 123.72 55.4319C123.531 55.6213 123.436 55.8816 123.436 56.2129C123.436 56.5678 123.561 56.8518 123.809 57.0648C124.069 57.2777 124.412 57.3842 124.838 57.3842Z" fill="#A2A2A2"/>
<path d="M136.588 49.9833C136.849 49.9596 137.056 50.0188 137.209 50.1608C137.375 50.2909 137.458 50.4862 137.458 50.7465C137.458 51.1014 137.375 51.3676 137.209 51.5451C137.044 51.7226 136.754 51.835 136.34 51.8823L135.861 51.9356C135.092 52.0184 134.53 52.2373 134.175 52.5923C133.82 52.9354 133.613 53.456 133.553 54.1541L133.252 57.8812C133.228 58.2361 133.104 58.5023 132.879 58.6798C132.654 58.8573 132.388 58.946 132.08 58.946C131.761 58.946 131.501 58.8573 131.299 58.6798C131.098 58.5023 131.01 58.2361 131.033 57.8812L131.601 50.9949C131.625 50.6636 131.749 50.4152 131.974 50.2495C132.21 50.072 132.477 49.9833 132.772 49.9833C133.08 49.9833 133.317 50.0661 133.482 50.2318C133.66 50.3974 133.737 50.64 133.713 50.9594L133.678 51.4386C133.985 51.0009 134.376 50.6636 134.849 50.427C135.322 50.1785 135.837 50.0365 136.393 50.001L136.588 49.9833Z" fill="#A2A2A2"/>
<path d="M145.605 54.1186C145.605 54.3671 145.534 54.5623 145.392 54.7043C145.262 54.8344 145.09 54.8995 144.877 54.8995H139.606C139.642 55.6804 139.861 56.272 140.263 56.6743C140.677 57.0766 141.257 57.2777 142.002 57.2777C142.416 57.2777 142.789 57.2304 143.12 57.1357C143.464 57.0293 143.801 56.8754 144.132 56.6743C144.286 56.5915 144.434 56.5501 144.576 56.5501C144.777 56.5501 144.931 56.627 145.037 56.7808C145.156 56.9228 145.215 57.1003 145.215 57.3132C145.215 57.6564 145.067 57.9403 144.771 58.1651C144.451 58.4018 144.026 58.597 143.493 58.7508C142.972 58.9046 142.428 58.9815 141.86 58.9815C140.973 58.9815 140.198 58.81 139.535 58.4669C138.873 58.1119 138.358 57.6149 137.991 56.976C137.636 56.3371 137.459 55.5917 137.459 54.7398C137.459 53.8169 137.642 52.9945 138.009 52.2728C138.376 51.5392 138.89 50.9713 139.553 50.569C140.216 50.1549 140.973 49.9478 141.825 49.9478C143.032 49.9478 143.96 50.3087 144.611 51.0304C145.274 51.7522 145.605 52.7816 145.605 54.1186ZM141.914 51.5096C140.659 51.5096 139.914 52.2432 139.677 53.7104H143.724C143.736 52.9886 143.582 52.4444 143.262 52.0776C142.943 51.6989 142.493 51.5096 141.914 51.5096Z" fill="#A2A2A2"/>
<path d="M91.6924 31.6922C92.0082 31.6922 92.1661 32.1194 92.1661 32.9739C92.1661 33.4383 91.971 34.0048 91.5809 34.6735C91.1909 35.3236 90.68 35.9273 90.0485 36.4846C89.4355 37.0233 88.7482 37.4691 87.9866 37.822C87.225 38.1749 86.417 38.3514 85.5626 38.3514C84.7267 38.3514 84.0672 38.0821 83.5843 37.5434C83.1199 36.9861 82.8877 36.3731 82.8877 35.7044C82.8877 35.0172 82.9992 34.2463 83.2221 33.3918C83.445 32.5374 83.6865 31.6457 83.9465 30.717C84.6524 28.2465 85.0146 26.5097 85.0332 25.5066C85.0332 25.0794 84.9774 24.7543 84.866 24.5314C84.7545 24.29 84.5409 24.1692 84.2251 24.1692C83.6679 24.1692 83.0735 24.5036 82.4419 25.1723C81.8104 25.841 81.216 26.6954 80.6587 27.7357C79.377 30.1133 78.699 32.4352 78.6247 34.7014C78.6619 34.9614 78.699 35.2215 78.7362 35.4815C78.7733 35.7416 78.7919 36.0202 78.7919 36.3174C78.7919 36.9118 78.4947 37.4598 77.9003 37.9613C77.3244 38.4443 76.6743 38.6858 75.9499 38.6858C75.5226 38.6858 75.2069 38.4814 75.0025 38.0728C74.7982 37.6455 74.696 37.1254 74.696 36.5125C74.696 35.8995 74.8354 35.0636 75.114 34.0048C75.3926 32.946 75.6991 31.8222 76.0335 30.6334C76.9251 27.4942 77.3802 25.1537 77.3987 23.612C77.3987 22.8318 77.2966 22.2188 77.0922 21.773C76.9065 21.3272 76.535 21.1043 75.9777 21.1043C74.9747 21.1043 73.9809 21.8194 72.9964 23.2497C72.0119 24.68 71.1296 26.8998 70.3494 29.909C70.1451 30.6891 69.9872 31.3671 69.8758 31.943L69.8479 32.4723C70.2008 34.1813 70.3773 35.2958 70.3773 35.8159C70.3773 36.8933 69.9965 37.6177 69.2349 37.9892C68.882 38.1564 68.5384 38.3143 68.204 38.4629C67.8882 38.6115 67.5446 38.6858 67.1731 38.6858C66.2443 38.6858 65.7799 37.8034 65.7799 36.0388C65.7799 34.2556 66.2722 30.782 67.2567 25.6181C67.6096 23.7606 67.7861 22.7203 67.7861 22.4974C67.7861 20.9929 67.4053 20.2406 66.6437 20.2406C66.3836 20.2406 66.1421 20.3149 65.9192 20.4635C65.7149 20.6121 65.5013 20.7699 65.2784 20.9371C65.0741 21.1043 64.8605 21.2622 64.6376 21.4108C64.4147 21.5594 64.1546 21.6337 63.8574 21.6337C63.5788 21.6337 63.4395 21.3829 63.4395 20.8814C63.4395 19.8598 63.9131 19.0239 64.8605 18.3737C65.7706 17.705 66.8759 17.3707 68.1761 17.3707C69.8479 17.3707 70.8324 18.1508 71.1296 19.7112C71.2039 20.1755 71.2596 20.6678 71.2968 21.1879C72.6713 18.6059 74.4081 17.315 76.5071 17.315C78.7919 17.315 80.1014 18.4109 80.4358 20.6028C80.5472 21.2343 80.5937 21.9123 80.5751 22.6368V22.8597C81.7825 21.1879 83.2128 20.352 84.866 20.352C87.2065 20.352 88.3767 21.7637 88.3767 24.5872C88.3767 25.8131 88.1817 27.2527 87.7916 28.9059C87.4201 30.5405 87.1414 31.72 86.9557 32.4445C86.7885 33.1503 86.7049 33.6983 86.7049 34.0884C86.7049 34.7943 86.9464 35.1472 87.4294 35.1472C87.9309 35.1472 89.1104 34.1813 90.9679 32.2494C91.3023 31.8779 91.5438 31.6922 91.6924 31.6922Z" fill="#A2A2A2"/>
<path d="M107.885 31.6922C108.22 31.6922 108.387 32.1194 108.387 32.9739C108.387 33.4383 108.192 34.0048 107.802 34.6735C107.412 35.3236 106.901 35.9273 106.269 36.4846C105.656 37.0233 104.969 37.4691 104.208 37.822C103.446 38.1749 102.703 38.3514 101.979 38.3514C100.994 38.3514 100.335 37.4877 100 35.7602C99.5173 36.5589 98.8858 37.2183 98.1056 37.7384C97.3255 38.24 96.276 38.4907 94.9571 38.4907C93.6569 38.4907 92.6074 38.0821 91.8086 37.2648C91.0099 36.4474 90.6198 35.4537 90.6384 34.2834C90.6384 31.1256 91.6879 28.6366 93.7869 26.8162C94.6785 26.0546 95.5051 25.5531 96.2667 25.3116C97.0468 25.0701 97.8641 24.9494 98.7186 24.9494C99.5731 24.9494 100.27 25.098 100.808 25.3952C101.068 24.8565 101.366 24.5872 101.7 24.5872C102.35 24.5872 102.963 24.8751 103.539 25.4509C104.133 26.0082 104.43 26.5376 104.43 27.0391C104.17 27.6521 103.79 28.3858 103.288 29.2403C103.14 30.0947 103.065 31.2928 103.065 32.8346C103.065 34.3763 103.26 35.1472 103.65 35.1472C104.133 35.1472 105.304 34.1813 107.161 32.2494C107.495 31.8779 107.737 31.6922 107.885 31.6922ZM94.7342 33.364C94.7342 34.7942 95.2636 35.5094 96.3224 35.5094C97.4555 35.4908 98.3935 34.8871 99.1366 33.6983C99.3966 33.2897 99.6102 32.7881 99.7774 32.1937C99.7774 30.1133 99.9632 28.3301 100.335 26.844C98.8301 27.1413 97.5205 27.8657 96.406 29.0174C95.2915 30.169 94.7342 31.6179 94.7342 33.364Z" fill="#A2A2A2"/>
<path d="M110.701 24.3643C111.369 24.3643 112.001 25.0051 112.595 26.2868C113.468 25.3766 114.546 24.9215 115.827 24.9215C117.128 24.9215 118.103 25.2094 118.753 25.7853C119.403 26.3425 119.728 27.1413 119.728 28.1815C119.728 29.2031 119.589 30.2433 119.31 31.3021C119.05 32.3609 118.855 33.1225 118.725 33.5869C118.614 34.0327 118.558 34.4042 118.558 34.7014C118.558 34.9986 118.66 35.1472 118.864 35.1472C119.143 35.1472 119.487 34.9707 119.895 34.6178C120.304 34.2649 120.713 33.8841 121.121 33.4754C121.53 33.0482 121.901 32.6581 122.236 32.3052C122.589 31.9522 122.83 31.7758 122.96 31.7758C123.22 31.7758 123.35 32.0916 123.35 32.7231C123.35 34.0234 122.709 35.2772 121.428 36.4846C119.273 37.7477 117.898 38.3793 117.304 38.3793C117.248 38.3793 117.211 38.37 117.193 38.3514C115.707 38.3514 114.964 37.1626 114.964 34.785C114.964 33.7633 115.056 32.8253 115.242 31.9708C115.446 31.1164 115.595 30.4941 115.688 30.104C115.781 29.7139 115.827 29.3146 115.827 28.9059C115.827 28.2372 115.437 27.9028 114.657 27.9028C113.895 27.9028 113.162 28.4787 112.456 29.6303C111.769 30.7634 111.304 31.9429 111.063 33.1689V33.364C111.063 33.9955 111.156 34.6456 111.341 35.3144C111.546 35.9831 111.648 36.4474 111.648 36.7075C111.648 37.3391 110.858 37.9613 109.28 38.5743C109.038 38.6672 108.824 38.7136 108.639 38.7136C108.174 38.7136 107.849 38.4721 107.663 37.9892C107.496 37.5062 107.413 36.7539 107.413 35.7323C107.413 33.0946 107.515 31.1907 107.719 30.0204C107.998 28.2743 108.629 26.649 109.614 25.1444C109.948 24.6243 110.31 24.3643 110.701 24.3643Z" fill="#A2A2A2"/>
<path d="M128.313 24.7822C129.557 24.7636 130.486 24.9958 131.099 25.4788C131.712 25.9432 132.019 26.6211 132.019 27.5128C132.019 28.3858 131.749 29.1381 131.211 29.7696C130.691 30.3826 130.05 30.8192 129.288 31.0792C129.827 31.6365 130.31 32.203 130.737 32.7788C131.183 33.3547 131.406 33.9584 131.406 34.5899C131.406 35.8345 130.913 36.8004 129.929 37.4877C128.944 38.1564 127.57 38.4907 125.805 38.4907C124.059 38.4907 122.75 38.1471 121.877 37.4598C121.004 36.7539 120.567 35.9645 120.567 35.0915C120.567 34.1998 120.781 33.3918 121.208 32.6674C121.654 31.943 122.127 31.5807 122.629 31.5807C122.926 31.5807 123.14 31.6922 123.27 31.9151C123.4 32.1194 123.641 32.7324 123.994 33.754C124.124 34.1255 124.338 34.4785 124.635 34.8128C125.322 35.5744 126.409 35.9552 127.895 35.9552C127.672 35.2493 127.31 34.6456 126.808 34.1441C126.325 33.624 125.842 33.1225 125.359 32.6395C124.876 32.1566 124.449 31.6457 124.078 31.1071C123.706 30.5498 123.52 29.8997 123.52 29.1567C123.52 27.8192 124.022 26.7326 125.025 25.8967C125.972 25.1537 127.068 24.7822 128.313 24.7822ZM128.201 29.9368C128.944 29.1381 129.316 28.4972 129.316 28.0143C129.316 27.7914 129.232 27.5963 129.065 27.4292C128.917 27.2434 128.694 27.1505 128.396 27.1505C128.099 27.1505 127.811 27.1877 127.533 27.262C127.273 27.3363 127.059 27.392 126.892 27.4292C126.892 28.135 127.328 28.9709 128.201 29.9368Z" fill="#A2A2A2"/>
<path d="M140.638 36.2338C139.71 37.5155 138.465 38.1564 136.905 38.1564C135.642 38.1564 134.629 37.8963 133.868 37.3762C133.125 36.8375 132.753 35.9924 132.753 34.8407C132.753 34.3577 132.818 33.9119 132.948 33.5033C133.097 33.0946 133.329 32.5931 133.645 31.9987L134.453 25.3952C135.029 24.9494 135.809 24.7265 136.793 24.7265C137.629 24.7265 138.103 25.2837 138.214 26.3982C138.252 26.7326 138.27 27.132 138.27 27.5963C138.27 28.0422 138.196 28.5158 138.047 29.0174C137.304 31.5807 136.942 33.2989 136.961 34.172C136.961 34.8407 137.351 35.175 138.131 35.175C138.911 35.175 139.487 34.9243 139.858 34.4227C140.23 33.9212 140.546 33.2989 140.806 32.5559C141.289 30.4941 141.734 28.7944 142.143 27.457C142.57 26.1196 142.84 25.3209 142.951 25.0608C143.137 24.615 143.49 24.3828 144.01 24.3643C144.53 24.3828 145.022 24.7543 145.487 25.4788C145.951 26.1846 146.183 26.7326 146.183 27.1227C146.146 28.4229 145.338 31.7015 143.759 36.9583C144.967 36.0109 146.165 34.85 147.353 33.4754C147.762 32.9925 148.106 32.5931 148.384 32.2773C148.663 31.943 148.886 31.7758 149.053 31.7758C149.313 31.7758 149.443 32.073 149.443 32.6674C149.443 33.8376 148.784 35.2029 147.465 36.7632C146.165 38.3235 144.567 39.5402 142.672 40.4133C142.45 41.1563 142.208 41.8621 141.948 42.5308C141.688 43.1995 141.354 43.7847 140.945 44.2862C140.053 45.3636 138.697 45.9022 136.877 45.9022C135.651 45.9022 134.602 45.5493 133.728 44.8435C132.874 44.1376 132.447 43.2553 132.447 42.1965C132.447 41.6021 132.642 41.1284 133.032 40.7755C133.441 40.4225 133.989 40.1253 134.676 39.8839C135.382 39.661 136.199 39.4566 137.128 39.2709C138.057 39.1037 139.05 38.8901 140.109 38.63C140.369 37.5155 140.546 36.7168 140.638 36.2338ZM136.849 43.7568C137.722 43.7568 138.512 42.9952 139.217 41.472C138.549 41.6021 137.954 41.6949 137.434 41.7507C136.914 41.825 136.468 41.89 136.097 41.9457C135.354 42.0572 134.992 42.2522 135.01 42.5308C135.01 42.8838 135.215 43.181 135.623 43.4224C136.05 43.6639 136.459 43.7754 136.849 43.7568Z" fill="#A2A2A2"/>
<path d="M156.72 26.5097C156.72 25.2652 157.686 24.6429 159.617 24.6429C160.1 24.6429 160.398 24.8008 160.509 25.1166C160.639 25.4323 160.704 25.9153 160.704 26.5654C160.704 27.4756 160.5 28.8873 160.091 30.8006C159.682 32.7138 159.487 34.0048 159.506 34.6735C159.506 34.9893 159.608 35.1472 159.812 35.1472C160.091 35.1472 160.435 34.9707 160.843 34.6178C161.252 34.2649 161.661 33.8841 162.069 33.4754C162.478 33.0482 162.85 32.6581 163.184 32.3052C163.537 31.9522 163.778 31.7758 163.908 31.7758C164.168 31.7758 164.298 32.0916 164.298 32.7231C164.298 34.0234 163.658 35.2772 162.376 36.4846C160.221 37.7477 158.856 38.3793 158.28 38.3793C158.224 38.3793 158.178 38.37 158.141 38.3514C157.435 38.3514 156.933 38.1192 156.636 37.6548C156.357 37.1905 156.181 36.6053 156.107 35.8995C155.735 36.5868 155.224 37.1812 154.574 37.6827C153.924 38.1657 153.181 38.4071 152.345 38.4071C150.878 38.4071 149.745 38.1285 148.946 37.5712C148.166 37.014 147.776 36.1874 147.776 35.0915C147.776 34.6085 147.841 34.1627 147.971 33.754C148.119 33.3454 148.352 32.8438 148.667 32.2494L149.475 25.3952C150.051 24.9494 150.878 24.7265 151.955 24.7265C152.81 24.7265 153.293 25.2837 153.404 26.3982C153.497 27.3084 153.45 28.1257 153.265 28.8502C153.098 29.556 152.865 30.4569 152.568 31.5529C152.271 32.6302 152.122 33.5869 152.122 34.4227C152.122 35.0915 152.54 35.4258 153.376 35.4258C154.286 35.4258 155.076 34.6271 155.744 33.0296C156.265 31.8036 156.618 30.4384 156.803 28.9338C156.785 28.7852 156.766 28.5994 156.748 28.3765C156.748 28.135 156.738 27.9028 156.72 27.6799C156.72 27.457 156.72 27.2341 156.72 27.0112V26.5097Z" fill="#A2A2A2"/>
<path d="M166.979 33.5869L167.146 36.9861C167.146 37.4319 166.914 37.8313 166.449 38.1842C165.985 38.5372 165.354 38.7136 164.555 38.7136C164.09 38.7136 163.765 38.4721 163.58 37.9892C163.412 37.5062 163.329 36.8004 163.329 35.8716C163.329 33.9212 163.422 32.398 163.607 31.3021C163.812 30.1876 164.202 29.0638 164.778 27.9307C163.923 27.1134 163.496 26.4075 163.496 25.8131C163.496 24.5686 164.165 23.9463 165.502 23.9463C166.189 23.9463 166.793 24.3085 167.313 25.033C167.685 25.5345 167.954 26.1196 168.121 26.7883C168.381 26.8812 168.706 26.9276 169.096 26.9276C169.635 26.9276 170.257 26.7512 170.963 26.3982L171.688 26.036C171.911 25.9246 172.106 25.8688 172.273 25.8688C172.812 25.8688 173.35 26.6583 173.889 28.2372C173.722 28.9616 173.536 29.6582 173.332 30.3269C173.146 30.9956 172.923 31.8036 172.663 32.751C172.403 33.6983 172.264 34.3392 172.245 34.6735C172.245 34.9893 172.347 35.1472 172.551 35.1472C172.83 35.1472 173.174 34.9707 173.582 34.6178C173.991 34.2649 174.4 33.8841 174.808 33.4754C175.217 33.0482 175.589 32.6581 175.923 32.3052C176.276 31.9522 176.517 31.7758 176.647 31.7758C176.907 31.7758 177.037 32.0916 177.037 32.7231C177.037 34.0048 176.471 35.2679 175.338 36.5125C174.223 37.757 172.942 38.37 171.493 38.3514C170.638 38.3514 169.997 38.0078 169.57 37.3205C169.143 36.6332 168.92 35.7973 168.901 34.8128C168.901 32.8624 169.338 31.0142 170.211 29.2681C169.802 29.4353 169.338 29.5189 168.818 29.5189C168.316 29.5189 167.954 29.5003 167.731 29.4632C167.564 30.169 167.397 30.8842 167.23 31.6086C167.062 32.3145 166.979 32.9739 166.979 33.5869Z" fill="#A2A2A2"/>
<path d="M178.989 38.3514C177.131 38.3514 176.202 36.6146 176.202 33.1411C176.202 31.2464 176.435 29.5282 176.899 27.9864C177.623 25.6088 178.441 24.42 179.351 24.42C179.89 24.42 180.317 24.7822 180.633 25.5066C180.893 26.0639 181.013 26.6119 180.995 27.1505C180.995 27.8936 180.772 29.2031 180.326 31.0792C179.899 32.7138 179.685 33.7262 179.685 34.1163C179.685 34.5063 179.778 34.7757 179.964 34.9243C180.168 35.0729 180.4 35.1472 180.66 35.1472C180.939 35.1472 181.283 34.9707 181.691 34.6178C182.1 34.2649 182.509 33.8841 182.917 33.4754C183.326 33.0482 183.697 32.6581 184.032 32.3052C184.385 31.9522 184.626 31.7758 184.756 31.7758C185.016 31.7758 185.146 32.0916 185.146 32.7231C185.146 34.0234 184.487 35.2958 183.168 36.5403C181.868 37.7663 180.475 38.37 178.989 38.3514ZM180.131 22.1631C179.629 21.4201 179.379 20.6213 179.379 19.7669C179.379 18.9124 179.509 18.2066 179.769 17.6493C180.047 17.0735 180.307 16.6555 180.549 16.3955C180.79 16.1169 181.069 15.9775 181.385 15.9775C181.905 15.9775 182.379 16.3676 182.806 17.1478C183.233 17.9094 183.447 18.5502 183.447 19.0703C183.447 20.0362 183.103 20.7978 182.416 21.3551C181.747 21.8937 180.985 22.1631 180.131 22.1631Z" fill="#A2A2A2"/>
<path d="M187.459 24.3643C188.128 24.3643 188.76 25.0051 189.354 26.2868C190.227 25.3766 191.304 24.9215 192.586 24.9215C193.886 24.9215 194.862 25.2094 195.512 25.7853C196.162 26.3425 196.487 27.1413 196.487 28.1815C196.487 29.2031 196.348 30.2433 196.069 31.3021C195.809 32.3609 195.614 33.1225 195.484 33.5869C195.372 34.0327 195.317 34.4042 195.317 34.7014C195.317 34.9986 195.419 35.1472 195.623 35.1472C195.902 35.1472 196.245 34.9707 196.654 34.6178C197.063 34.2649 197.471 33.8841 197.88 33.4754C198.289 33.0482 198.66 32.6581 198.995 32.3052C199.348 31.9522 199.589 31.7758 199.719 31.7758C199.979 31.7758 200.109 32.0916 200.109 32.7231C200.109 34.0234 199.468 35.2772 198.187 36.4846C196.032 37.7477 194.657 38.3793 194.063 38.3793C194.007 38.3793 193.97 38.37 193.951 38.3514C192.465 38.3514 191.722 37.1626 191.722 34.785C191.722 33.7633 191.815 32.8253 192.001 31.9708C192.205 31.1164 192.354 30.4941 192.447 30.104C192.54 29.7139 192.586 29.3146 192.586 28.9059C192.586 28.2372 192.196 27.9028 191.416 27.9028C190.654 27.9028 189.921 28.4787 189.215 29.6303C188.527 30.7634 188.063 31.9429 187.822 33.1689V33.364C187.822 33.9955 187.914 34.6456 188.1 35.3144C188.305 35.9831 188.407 36.4474 188.407 36.7075C188.407 37.3391 187.617 37.9613 186.038 38.5743C185.797 38.6672 185.583 38.7136 185.398 38.7136C184.933 38.7136 184.608 38.4721 184.422 37.9892C184.255 37.5062 184.172 36.7539 184.172 35.7323C184.172 33.0946 184.274 31.1907 184.478 30.0204C184.757 28.2743 185.388 26.649 186.373 25.1444C186.707 24.6243 187.069 24.3643 187.459 24.3643Z" fill="#A2A2A2"/>
<path d="M215.827 31.6922C216.161 31.6922 216.328 32.1194 216.328 32.9739C216.328 33.4383 216.133 34.0048 215.743 34.6735C215.353 35.3236 214.842 35.9273 214.211 36.4846C213.598 37.0233 212.911 37.4691 212.149 37.822C211.387 38.1749 210.644 38.3514 209.92 38.3514C208.935 38.3514 208.276 37.4877 207.942 35.7602C207.459 36.5589 206.827 37.2183 206.047 37.7384C205.267 38.24 204.217 38.4907 202.898 38.4907C201.598 38.4907 200.549 38.0821 199.75 37.2648C198.951 36.4474 198.561 35.4537 198.58 34.2834C198.58 31.1256 199.629 28.6366 201.728 26.8162C202.62 26.0546 203.446 25.5531 204.208 25.3116C204.988 25.0701 205.805 24.9494 206.66 24.9494C207.514 24.9494 208.211 25.098 208.75 25.3952C209.01 24.8565 209.307 24.5872 209.641 24.5872C210.291 24.5872 210.904 24.8751 211.48 25.4509C212.075 26.0082 212.372 26.5376 212.372 27.0391C212.112 27.6521 211.731 28.3858 211.229 29.2403C211.081 30.0947 211.007 31.2928 211.007 32.8346C211.007 34.3763 211.202 35.1472 211.592 35.1472C212.075 35.1472 213.245 34.1813 215.102 32.2494C215.437 31.8779 215.678 31.6922 215.827 31.6922ZM202.676 33.364C202.676 34.7942 203.205 35.5094 204.264 35.5094C205.397 35.4908 206.335 34.8871 207.078 33.6983C207.338 33.2897 207.552 32.7881 207.719 32.1937C207.719 30.1133 207.904 28.3301 208.276 26.844C206.771 27.1413 205.462 27.8657 204.347 29.0174C203.233 30.169 202.676 31.6179 202.676 33.364Z" fill="#A2A2A2"/>
</svg>
