<svg width="217" height="63" viewBox="0 0 217 63" fill="none" xmlns="http://www.w3.org/2000/svg">
<g clip-path="url(#clip0_94_53)">
<path fill-rule="evenodd" clip-rule="evenodd" d="M51.5295 37.3536C53.0091 31.2305 52.3887 22.7396 46.4933 18.6015C43.016 16.1613 38.3065 14.8015 32.3649 14.5223C37.0484 5.8759 36.6642 1.13441 31.2122 0.297854C23.0343 -0.957787 19.1805 9.59745 22.9291 13.7904C24.5103 15.5592 22.0182 16.3448 18.4954 17.4553C14.3103 18.7746 8.67061 20.5525 6.67838 24.9823C4.70065 29.3788 4.0931 34.4587 4.85572 40.222C4.93282 37.6973 5.54742 35.6337 6.93122 32.9079C10.1191 26.2884 16.1369 21.8624 21.1434 18.0087C26.697 13.7337 31.1435 10.3111 29.6959 6.02052C28.6925 3.04638 26.3848 3.60614 25.3316 4.84336C21.6753 9.1388 28.4573 12.0217 26.2756 6.02052C27.0422 6.25596 28.7527 8.19707 26.8062 9.72659C24.8604 11.2569 21.9707 7.3146 24.5064 4.49021C27.0422 1.66662 29.9584 3.62696 30.6985 6.02052C31.9884 10.1884 26.6157 14.5409 20.5317 19.4695C15.394 23.6316 9.74902 28.2047 7.18086 33.4244C5.7559 36.3206 4.88191 38.665 4.92027 41.9239C4.94501 42.3748 4.98815 42.8265 5.04969 43.279C5.02688 43.2641 5.00416 43.2493 4.98152 43.2348C5.00124 43.4828 5.02573 43.7362 5.0551 43.9957C5.02551 43.7344 4.9989 43.4796 4.97536 43.2309C3.35841 42.1944 2.17565 42.1463 1.42708 43.0864C0.208574 44.6159 0.31694 49.0876 5.62924 51.0879C6.61728 51.5448 7.55398 51.842 8.43937 51.9794C8.48811 52.0559 8.53737 52.1324 8.58712 52.2088C7.40206 53.0043 6.61276 54.129 6.44398 55.6598C5.618 63.1512 20.9914 62.955 24.2937 60.9546C25.0017 61.7394 25.6704 61.7001 26.7709 61.3077C27.8722 60.9154 25.9842 57.1893 25.3164 57.9348C24.9329 58.3619 25.4805 59.2535 25.9136 59.9586C26.2357 60.4831 26.4944 60.9044 26.2595 60.9546C25.6832 61.19 25.1984 60.9156 24.805 60.1314C23.4945 60.8243 21.2009 61.2885 17.9243 61.524C13.0101 61.8763 7.38796 59.739 7.89849 55.6598C9.35379 47.3443 23.727 52.5399 26.2595 54.0686C26.2949 54.0899 26.3365 54.1146 26.3835 54.1426L26.3844 54.1431C27.035 54.5298 28.7273 55.5356 29.5346 56.8537C30.4337 58.3224 30.7611 59.4332 30.9659 60.1279C31.1463 60.74 31.2315 61.0289 31.5285 60.9546C32.5831 60.6914 31.4721 56.6472 27.6758 53.7212C31.6655 51.8971 35.4844 51.4246 39.1325 52.3037C44.7057 53.6474 47.7576 62.4281 34.0899 60.4429C33.1171 61.1484 39.5451 63.5756 45.266 59.4716C50.9533 55.3918 40.055 46.6002 26.843 53.1357C23.4101 51.0336 14.2888 49.4154 9.47848 51.7048C7.48418 48.797 6.23868 45.9509 5.74198 43.1664C7.02843 31.5267 14.9593 24.6635 29.5346 22.5767C37.9174 22.313 40.5448 30.797 42.5511 37.2752C43.7232 41.0598 44.6832 44.1599 46.455 44.4313C46.4288 44.8787 46.3993 45.3325 46.3665 45.7925C48.9876 39.9879 51.2157 37.7131 53.0506 38.9682C55.8031 40.8508 51.4781 49.284 45.266 52.3038C51.2028 51.0882 58.7121 43.2829 53.0506 37.948C52.5918 37.4902 52.0847 37.2921 51.5295 37.3536ZM2.56772 44.1058C3.43065 43.5709 4.33383 43.7295 5.27728 44.5817C5.6834 46.4862 6.4134 48.4045 7.46729 50.3366C2.31458 48.4202 0.681394 46.3433 2.56772 44.1058Z" fill="#A2A2A2"/>
<path d="M28.4686 35.4229C27.1714 35.2467 28.5184 32.6337 31.2403 32.4415C34.0225 32.2461 35.713 34.0695 34.7787 34.4812C34.1301 34.7678 32.8329 32.4808 31.2403 33.4225C29.6478 34.3642 29.7658 35.5991 28.4686 35.4229Z" fill="#A2A2A2"/>
<path d="M20.0153 36.0396C21.2145 35.5142 19.1989 33.3721 16.5291 33.9335C13.7999 34.5077 12.677 36.7242 13.6884 36.8644C14.3915 36.9621 15.0088 34.4076 16.7989 34.876C18.5897 35.3453 18.8169 36.5649 20.0153 36.0396Z" fill="#A2A2A2"/>
<path d="M29.785 45.8133C29.4896 47.314 31.9965 47.2259 33.4999 47.0201C35.0042 46.8135 38.13 45.7845 36.832 44.7547C35.5348 43.7248 35.3871 45.6668 33.2054 45.4898C31.0228 45.3136 30.0796 44.3134 29.785 45.8133Z" fill="#A2A2A2"/>
<path d="M13.1755 46.5631C12.9355 47.8444 14.9743 47.7691 16.1976 47.5929C17.421 47.4176 19.9639 46.5383 18.9084 45.659C17.8528 44.7806 17.7332 46.4374 15.9576 46.2869C14.1829 46.1363 13.4155 45.2827 13.1755 46.5631Z" fill="#A2A2A2"/>
<path d="M24.3587 50.3376C24.8235 49.3774 25.273 50.7788 26.2756 50.7788C27.2782 50.7788 27.7205 49.8082 28.2511 50.3376C28.7825 50.8669 27.4845 52.2643 26.2756 52.0288C25.0667 51.7934 24.1436 50.782 24.3587 50.3376Z" fill="#A2A2A2"/>
<path d="M38.8079 50.0014C40.4528 50.0014 41.7862 49.2277 41.7862 48.2732C41.7862 47.3187 40.4528 46.545 38.8079 46.545C37.1631 46.545 35.8296 47.3187 35.8296 48.2732C35.8296 49.2277 37.1631 50.0014 38.8079 50.0014Z" fill="#A2A2A2"/>
<path d="M12.0624 50.5897C13.3653 50.5897 14.4214 49.9405 14.4214 49.1397C14.4214 48.3388 13.3653 47.6896 12.0624 47.6896C10.7596 47.6896 9.70339 48.3388 9.70339 49.1397C9.70339 49.9405 10.7596 50.5897 12.0624 50.5897Z" fill="#A2A2A2"/>
<path d="M28.4285 58.9865C27.8008 57.5867 26.4378 56.7451 26.787 56.6482C27.1241 56.5545 28.357 57.1511 29.0915 58.1481C29.9576 59.3236 30.2643 60.9428 29.5346 61.0117C28.8218 61.079 29.1108 60.5112 28.4285 58.9865Z" fill="#A2A2A2"/>
<path d="M91.6924 31.6922C92.0082 31.6922 92.1661 32.1194 92.1661 32.9739C92.1661 33.4383 91.971 34.0048 91.5809 34.6735C91.1909 35.3236 90.68 35.9273 90.0485 36.4846C89.4355 37.0233 88.7482 37.4691 87.9866 37.822C87.225 38.1749 86.417 38.3514 85.5626 38.3514C84.7267 38.3514 84.0672 38.0821 83.5843 37.5434C83.1199 36.9861 82.8877 36.3731 82.8877 35.7044C82.8877 35.0172 82.9992 34.2463 83.2221 33.3918C83.445 32.5374 83.6865 31.6457 83.9465 30.717C84.6524 28.2465 85.0146 26.5097 85.0332 25.5066C85.0332 25.0794 84.9774 24.7543 84.866 24.5314C84.7545 24.29 84.5409 24.1692 84.2251 24.1692C83.6679 24.1692 83.0735 24.5036 82.4419 25.1723C81.8104 25.841 81.216 26.6954 80.6587 27.7357C79.377 30.1133 78.699 32.4352 78.6247 34.7014C78.6619 34.9614 78.699 35.2215 78.7362 35.4815C78.7733 35.7416 78.7919 36.0202 78.7919 36.3174C78.7919 36.9118 78.4947 37.4598 77.9003 37.9613C77.3244 38.4443 76.6743 38.6858 75.9499 38.6858C75.5226 38.6858 75.2069 38.4814 75.0025 38.0728C74.7982 37.6455 74.696 37.1254 74.696 36.5125C74.696 35.8995 74.8354 35.0636 75.114 34.0048C75.3926 32.946 75.6991 31.8222 76.0335 30.6334C76.9251 27.4942 77.3802 25.1537 77.3987 23.612C77.3987 22.8318 77.2966 22.2188 77.0922 21.773C76.9065 21.3272 76.535 21.1043 75.9777 21.1043C74.9747 21.1043 73.9809 21.8194 72.9964 23.2497C72.0119 24.68 71.1296 26.8998 70.3494 29.909C70.1451 30.6891 69.9872 31.3671 69.8758 31.943L69.8479 32.4723C70.2008 34.1813 70.3773 35.2958 70.3773 35.8159C70.3773 36.8933 69.9965 37.6177 69.2349 37.9892C68.882 38.1564 68.5384 38.3143 68.204 38.4629C67.8882 38.6115 67.5446 38.6858 67.1731 38.6858C66.2443 38.6858 65.7799 37.8034 65.7799 36.0388C65.7799 34.2556 66.2722 30.782 67.2567 25.6181C67.6096 23.7606 67.7861 22.7203 67.7861 22.4974C67.7861 20.9929 67.4053 20.2406 66.6437 20.2406C66.3836 20.2406 66.1421 20.3149 65.9192 20.4635C65.7149 20.6121 65.5013 20.7699 65.2784 20.9371C65.0741 21.1043 64.8605 21.2622 64.6376 21.4108C64.4147 21.5594 64.1546 21.6337 63.8574 21.6337C63.5788 21.6337 63.4395 21.3829 63.4395 20.8814C63.4395 19.8598 63.9131 19.0239 64.8605 18.3737C65.7706 17.705 66.8759 17.3707 68.1761 17.3707C69.8479 17.3707 70.8324 18.1508 71.1296 19.7112C71.2039 20.1755 71.2596 20.6678 71.2968 21.1879C72.6713 18.6059 74.4081 17.315 76.5071 17.315C78.7919 17.315 80.1014 18.4109 80.4358 20.6028C80.5472 21.2343 80.5937 21.9123 80.5751 22.6368V22.8597C81.7825 21.1879 83.2128 20.352 84.866 20.352C87.2065 20.352 88.3767 21.7637 88.3767 24.5872C88.3767 25.8131 88.1817 27.2527 87.7916 28.9059C87.4201 30.5405 87.1414 31.72 86.9557 32.4445C86.7885 33.1503 86.7049 33.6983 86.7049 34.0884C86.7049 34.7943 86.9464 35.1472 87.4294 35.1472C87.9309 35.1472 89.1104 34.1813 90.9679 32.2494C91.3023 31.8779 91.5438 31.6922 91.6924 31.6922Z" fill="#A2A2A2"/>
<path d="M107.885 31.6922C108.22 31.6922 108.387 32.1194 108.387 32.9739C108.387 33.4383 108.192 34.0048 107.802 34.6735C107.412 35.3236 106.901 35.9273 106.269 36.4846C105.656 37.0233 104.969 37.4691 104.208 37.822C103.446 38.1749 102.703 38.3514 101.979 38.3514C100.994 38.3514 100.335 37.4877 100 35.7602C99.5173 36.5589 98.8858 37.2183 98.1056 37.7384C97.3255 38.24 96.276 38.4907 94.9571 38.4907C93.6569 38.4907 92.6074 38.0821 91.8086 37.2648C91.0099 36.4474 90.6198 35.4537 90.6384 34.2834C90.6384 31.1256 91.6879 28.6366 93.7869 26.8162C94.6785 26.0546 95.5051 25.5531 96.2667 25.3116C97.0468 25.0701 97.8641 24.9494 98.7186 24.9494C99.5731 24.9494 100.27 25.098 100.808 25.3952C101.068 24.8565 101.366 24.5872 101.7 24.5872C102.35 24.5872 102.963 24.8751 103.539 25.4509C104.133 26.0082 104.43 26.5376 104.43 27.0391C104.17 27.6521 103.79 28.3858 103.288 29.2403C103.14 30.0947 103.065 31.2928 103.065 32.8346C103.065 34.3763 103.26 35.1472 103.65 35.1472C104.133 35.1472 105.304 34.1813 107.161 32.2494C107.495 31.8779 107.737 31.6922 107.885 31.6922ZM94.7342 33.364C94.7342 34.7942 95.2636 35.5094 96.3224 35.5094C97.4555 35.4908 98.3935 34.8871 99.1366 33.6983C99.3966 33.2897 99.6102 32.7881 99.7774 32.1937C99.7774 30.1133 99.9632 28.3301 100.335 26.844C98.8301 27.1413 97.5205 27.8657 96.406 29.0174C95.2915 30.169 94.7342 31.6179 94.7342 33.364Z" fill="#A2A2A2"/>
<path d="M110.701 24.3643C111.369 24.3643 112.001 25.0051 112.595 26.2868C113.468 25.3766 114.546 24.9215 115.827 24.9215C117.128 24.9215 118.103 25.2094 118.753 25.7853C119.403 26.3425 119.728 27.1413 119.728 28.1815C119.728 29.2031 119.589 30.2433 119.31 31.3021C119.05 32.3609 118.855 33.1225 118.725 33.5869C118.614 34.0327 118.558 34.4042 118.558 34.7014C118.558 34.9986 118.66 35.1472 118.864 35.1472C119.143 35.1472 119.487 34.9707 119.895 34.6178C120.304 34.2649 120.713 33.8841 121.121 33.4754C121.53 33.0482 121.901 32.6581 122.236 32.3052C122.589 31.9522 122.83 31.7758 122.96 31.7758C123.22 31.7758 123.35 32.0916 123.35 32.7231C123.35 34.0234 122.709 35.2772 121.428 36.4846C119.273 37.7477 117.898 38.3793 117.304 38.3793C117.248 38.3793 117.211 38.37 117.193 38.3514C115.707 38.3514 114.964 37.1626 114.964 34.785C114.964 33.7633 115.056 32.8253 115.242 31.9708C115.446 31.1164 115.595 30.4941 115.688 30.104C115.781 29.7139 115.827 29.3146 115.827 28.9059C115.827 28.2372 115.437 27.9028 114.657 27.9028C113.895 27.9028 113.162 28.4787 112.456 29.6303C111.769 30.7634 111.304 31.9429 111.063 33.1689V33.364C111.063 33.9955 111.156 34.6456 111.341 35.3144C111.546 35.9831 111.648 36.4474 111.648 36.7075C111.648 37.3391 110.858 37.9613 109.28 38.5743C109.038 38.6672 108.824 38.7136 108.639 38.7136C108.174 38.7136 107.849 38.4721 107.663 37.9892C107.496 37.5062 107.413 36.7539 107.413 35.7323C107.413 33.0946 107.515 31.1907 107.719 30.0204C107.998 28.2743 108.629 26.649 109.614 25.1444C109.948 24.6243 110.31 24.3643 110.701 24.3643Z" fill="#A2A2A2"/>
<path d="M128.313 24.7822C129.557 24.7636 130.486 24.9958 131.099 25.4788C131.712 25.9432 132.019 26.6211 132.019 27.5128C132.019 28.3858 131.749 29.1381 131.211 29.7696C130.691 30.3826 130.05 30.8192 129.288 31.0792C129.827 31.6365 130.31 32.203 130.737 32.7788C131.183 33.3547 131.406 33.9584 131.406 34.5899C131.406 35.8345 130.913 36.8004 129.929 37.4877C128.944 38.1564 127.57 38.4907 125.805 38.4907C124.059 38.4907 122.75 38.1471 121.877 37.4598C121.004 36.7539 120.567 35.9645 120.567 35.0915C120.567 34.1998 120.781 33.3918 121.208 32.6674C121.654 31.943 122.127 31.5807 122.629 31.5807C122.926 31.5807 123.14 31.6922 123.27 31.9151C123.4 32.1194 123.641 32.7324 123.994 33.754C124.124 34.1255 124.338 34.4785 124.635 34.8128C125.322 35.5744 126.409 35.9552 127.895 35.9552C127.672 35.2493 127.31 34.6456 126.808 34.1441C126.325 33.624 125.842 33.1225 125.359 32.6395C124.876 32.1566 124.449 31.6457 124.078 31.1071C123.706 30.5498 123.52 29.8997 123.52 29.1567C123.52 27.8192 124.022 26.7326 125.025 25.8967C125.972 25.1537 127.068 24.7822 128.313 24.7822ZM128.201 29.9368C128.944 29.1381 129.316 28.4972 129.316 28.0143C129.316 27.7914 129.232 27.5963 129.065 27.4292C128.917 27.2434 128.694 27.1505 128.396 27.1505C128.099 27.1505 127.811 27.1877 127.533 27.262C127.273 27.3363 127.059 27.392 126.892 27.4292C126.892 28.135 127.328 28.9709 128.201 29.9368Z" fill="#A2A2A2"/>
<path d="M140.638 36.2338C139.71 37.5155 138.465 38.1564 136.905 38.1564C135.642 38.1564 134.629 37.8963 133.868 37.3762C133.125 36.8375 132.753 35.9924 132.753 34.8407C132.753 34.3577 132.818 33.9119 132.948 33.5033C133.097 33.0946 133.329 32.5931 133.645 31.9987L134.453 25.3952C135.029 24.9494 135.809 24.7265 136.793 24.7265C137.629 24.7265 138.103 25.2837 138.214 26.3982C138.252 26.7326 138.27 27.132 138.27 27.5963C138.27 28.0422 138.196 28.5158 138.047 29.0174C137.304 31.5807 136.942 33.2989 136.961 34.172C136.961 34.8407 137.351 35.175 138.131 35.175C138.911 35.175 139.487 34.9243 139.858 34.4227C140.23 33.9212 140.546 33.2989 140.806 32.5559C141.289 30.4941 141.734 28.7944 142.143 27.457C142.57 26.1196 142.84 25.3209 142.951 25.0608C143.137 24.615 143.49 24.3828 144.01 24.3643C144.53 24.3828 145.022 24.7543 145.487 25.4788C145.951 26.1846 146.183 26.7326 146.183 27.1227C146.146 28.4229 145.338 31.7015 143.759 36.9583C144.967 36.0109 146.165 34.85 147.353 33.4754C147.762 32.9925 148.106 32.5931 148.384 32.2773C148.663 31.943 148.886 31.7758 149.053 31.7758C149.313 31.7758 149.443 32.073 149.443 32.6674C149.443 33.8376 148.784 35.2029 147.465 36.7632C146.165 38.3235 144.567 39.5402 142.672 40.4133C142.45 41.1563 142.208 41.8621 141.948 42.5308C141.688 43.1995 141.354 43.7847 140.945 44.2862C140.053 45.3636 138.697 45.9022 136.877 45.9022C135.651 45.9022 134.602 45.5493 133.728 44.8435C132.874 44.1376 132.447 43.2553 132.447 42.1965C132.447 41.6021 132.642 41.1284 133.032 40.7755C133.441 40.4225 133.989 40.1253 134.676 39.8839C135.382 39.661 136.199 39.4566 137.128 39.2709C138.057 39.1037 139.05 38.8901 140.109 38.63C140.369 37.5155 140.546 36.7168 140.638 36.2338ZM136.849 43.7568C137.722 43.7568 138.512 42.9952 139.217 41.472C138.549 41.6021 137.954 41.6949 137.434 41.7507C136.914 41.825 136.468 41.89 136.097 41.9457C135.354 42.0572 134.992 42.2522 135.01 42.5308C135.01 42.8838 135.215 43.181 135.623 43.4224C136.05 43.6639 136.459 43.7754 136.849 43.7568Z" fill="#A2A2A2"/>
<path d="M156.72 26.5097C156.72 25.2652 157.686 24.6429 159.617 24.6429C160.1 24.6429 160.398 24.8008 160.509 25.1166C160.639 25.4323 160.704 25.9153 160.704 26.5654C160.704 27.4756 160.5 28.8873 160.091 30.8006C159.682 32.7138 159.487 34.0048 159.506 34.6735C159.506 34.9893 159.608 35.1472 159.812 35.1472C160.091 35.1472 160.435 34.9707 160.843 34.6178C161.252 34.2649 161.661 33.8841 162.069 33.4754C162.478 33.0482 162.85 32.6581 163.184 32.3052C163.537 31.9522 163.778 31.7758 163.908 31.7758C164.168 31.7758 164.298 32.0916 164.298 32.7231C164.298 34.0234 163.658 35.2772 162.376 36.4846C160.221 37.7477 158.856 38.3793 158.28 38.3793C158.224 38.3793 158.178 38.37 158.141 38.3514C157.435 38.3514 156.933 38.1192 156.636 37.6548C156.357 37.1905 156.181 36.6053 156.107 35.8995C155.735 36.5868 155.224 37.1812 154.574 37.6827C153.924 38.1657 153.181 38.4071 152.345 38.4071C150.878 38.4071 149.745 38.1285 148.946 37.5712C148.166 37.014 147.776 36.1874 147.776 35.0915C147.776 34.6085 147.841 34.1627 147.971 33.754C148.119 33.3454 148.352 32.8438 148.667 32.2494L149.475 25.3952C150.051 24.9494 150.878 24.7265 151.955 24.7265C152.81 24.7265 153.293 25.2837 153.404 26.3982C153.497 27.3084 153.45 28.1257 153.265 28.8502C153.098 29.556 152.865 30.4569 152.568 31.5529C152.271 32.6302 152.122 33.5869 152.122 34.4227C152.122 35.0915 152.54 35.4258 153.376 35.4258C154.286 35.4258 155.076 34.6271 155.744 33.0296C156.265 31.8036 156.618 30.4384 156.803 28.9338C156.785 28.7852 156.766 28.5994 156.748 28.3765C156.748 28.135 156.738 27.9028 156.72 27.6799C156.72 27.457 156.72 27.2341 156.72 27.0112V26.5097Z" fill="#A2A2A2"/>
<path d="M166.979 33.5869L167.146 36.9861C167.146 37.4319 166.914 37.8313 166.449 38.1842C165.985 38.5372 165.354 38.7136 164.555 38.7136C164.09 38.7136 163.765 38.4721 163.58 37.9892C163.412 37.5062 163.329 36.8004 163.329 35.8716C163.329 33.9212 163.422 32.398 163.607 31.3021C163.812 30.1876 164.202 29.0638 164.778 27.9307C163.923 27.1134 163.496 26.4075 163.496 25.8131C163.496 24.5686 164.165 23.9463 165.502 23.9463C166.189 23.9463 166.793 24.3085 167.313 25.033C167.685 25.5345 167.954 26.1196 168.121 26.7883C168.381 26.8812 168.706 26.9276 169.096 26.9276C169.635 26.9276 170.257 26.7512 170.963 26.3982L171.688 26.036C171.911 25.9246 172.106 25.8688 172.273 25.8688C172.812 25.8688 173.35 26.6583 173.889 28.2372C173.722 28.9616 173.536 29.6582 173.332 30.3269C173.146 30.9956 172.923 31.8036 172.663 32.751C172.403 33.6983 172.264 34.3392 172.245 34.6735C172.245 34.9893 172.347 35.1472 172.551 35.1472C172.83 35.1472 173.174 34.9707 173.582 34.6178C173.991 34.2649 174.4 33.8841 174.808 33.4754C175.217 33.0482 175.589 32.6581 175.923 32.3052C176.276 31.9522 176.517 31.7758 176.647 31.7758C176.907 31.7758 177.037 32.0916 177.037 32.7231C177.037 34.0048 176.471 35.2679 175.338 36.5125C174.223 37.757 172.942 38.37 171.493 38.3514C170.638 38.3514 169.997 38.0078 169.57 37.3205C169.143 36.6332 168.92 35.7973 168.901 34.8128C168.901 32.8624 169.338 31.0142 170.211 29.2681C169.802 29.4353 169.338 29.5189 168.818 29.5189C168.316 29.5189 167.954 29.5003 167.731 29.4632C167.564 30.169 167.397 30.8842 167.23 31.6086C167.062 32.3145 166.979 32.9739 166.979 33.5869Z" fill="#A2A2A2"/>
<path d="M178.989 38.3514C177.131 38.3514 176.202 36.6146 176.202 33.1411C176.202 31.2464 176.435 29.5282 176.899 27.9864C177.623 25.6088 178.441 24.42 179.351 24.42C179.89 24.42 180.317 24.7822 180.633 25.5066C180.893 26.0639 181.013 26.6119 180.995 27.1505C180.995 27.8936 180.772 29.2031 180.326 31.0792C179.899 32.7138 179.685 33.7262 179.685 34.1163C179.685 34.5063 179.778 34.7757 179.964 34.9243C180.168 35.0729 180.4 35.1472 180.66 35.1472C180.939 35.1472 181.283 34.9707 181.691 34.6178C182.1 34.2649 182.509 33.8841 182.917 33.4754C183.326 33.0482 183.697 32.6581 184.032 32.3052C184.385 31.9522 184.626 31.7758 184.756 31.7758C185.016 31.7758 185.146 32.0916 185.146 32.7231C185.146 34.0234 184.487 35.2958 183.168 36.5403C181.868 37.7663 180.475 38.37 178.989 38.3514ZM180.131 22.1631C179.629 21.4201 179.379 20.6213 179.379 19.7669C179.379 18.9124 179.509 18.2066 179.769 17.6493C180.047 17.0735 180.307 16.6555 180.549 16.3955C180.79 16.1169 181.069 15.9775 181.385 15.9775C181.905 15.9775 182.379 16.3676 182.806 17.1478C183.233 17.9094 183.447 18.5502 183.447 19.0703C183.447 20.0362 183.103 20.7978 182.416 21.3551C181.747 21.8937 180.985 22.1631 180.131 22.1631Z" fill="#A2A2A2"/>
<path d="M187.459 24.3643C188.128 24.3643 188.76 25.0051 189.354 26.2868C190.227 25.3766 191.304 24.9215 192.586 24.9215C193.886 24.9215 194.862 25.2094 195.512 25.7853C196.162 26.3425 196.487 27.1413 196.487 28.1815C196.487 29.2031 196.348 30.2433 196.069 31.3021C195.809 32.3609 195.614 33.1225 195.484 33.5869C195.372 34.0327 195.317 34.4042 195.317 34.7014C195.317 34.9986 195.419 35.1472 195.623 35.1472C195.902 35.1472 196.245 34.9707 196.654 34.6178C197.063 34.2649 197.471 33.8841 197.88 33.4754C198.289 33.0482 198.66 32.6581 198.995 32.3052C199.348 31.9522 199.589 31.7758 199.719 31.7758C199.979 31.7758 200.109 32.0916 200.109 32.7231C200.109 34.0234 199.468 35.2772 198.187 36.4846C196.032 37.7477 194.657 38.3793 194.063 38.3793C194.007 38.3793 193.97 38.37 193.951 38.3514C192.465 38.3514 191.722 37.1626 191.722 34.785C191.722 33.7633 191.815 32.8253 192.001 31.9708C192.205 31.1164 192.354 30.4941 192.447 30.104C192.54 29.7139 192.586 29.3146 192.586 28.9059C192.586 28.2372 192.196 27.9028 191.416 27.9028C190.654 27.9028 189.921 28.4787 189.215 29.6303C188.527 30.7634 188.063 31.9429 187.822 33.1689V33.364C187.822 33.9955 187.914 34.6456 188.1 35.3144C188.305 35.9831 188.407 36.4474 188.407 36.7075C188.407 37.3391 187.617 37.9613 186.038 38.5743C185.797 38.6672 185.583 38.7136 185.398 38.7136C184.933 38.7136 184.608 38.4721 184.422 37.9892C184.255 37.5062 184.172 36.7539 184.172 35.7323C184.172 33.0946 184.274 31.1907 184.478 30.0204C184.757 28.2743 185.388 26.649 186.373 25.1444C186.707 24.6243 187.069 24.3643 187.459 24.3643Z" fill="#A2A2A2"/>
<path d="M215.827 31.6922C216.161 31.6922 216.328 32.1194 216.328 32.9739C216.328 33.4383 216.133 34.0048 215.743 34.6735C215.353 35.3236 214.842 35.9273 214.211 36.4846C213.598 37.0233 212.911 37.4691 212.149 37.822C211.387 38.1749 210.644 38.3514 209.92 38.3514C208.935 38.3514 208.276 37.4877 207.942 35.7602C207.459 36.5589 206.827 37.2183 206.047 37.7384C205.267 38.24 204.217 38.4907 202.898 38.4907C201.598 38.4907 200.549 38.0821 199.75 37.2648C198.951 36.4474 198.561 35.4537 198.58 34.2834C198.58 31.1256 199.629 28.6366 201.728 26.8162C202.62 26.0546 203.446 25.5531 204.208 25.3116C204.988 25.0701 205.805 24.9494 206.66 24.9494C207.514 24.9494 208.211 25.098 208.75 25.3952C209.01 24.8565 209.307 24.5872 209.641 24.5872C210.291 24.5872 210.904 24.8751 211.48 25.4509C212.075 26.0082 212.372 26.5376 212.372 27.0391C212.112 27.6521 211.731 28.3858 211.229 29.2403C211.081 30.0947 211.007 31.2928 211.007 32.8346C211.007 34.3763 211.202 35.1472 211.592 35.1472C212.075 35.1472 213.245 34.1813 215.102 32.2494C215.437 31.8779 215.678 31.6922 215.827 31.6922ZM202.676 33.364C202.676 34.7942 203.205 35.5094 204.264 35.5094C205.397 35.4908 206.335 34.8871 207.078 33.6983C207.338 33.2897 207.552 32.7881 207.719 32.1937C207.719 30.1133 207.904 28.3301 208.276 26.844C206.771 27.1413 205.462 27.8657 204.347 29.0174C203.233 30.169 202.676 31.6179 202.676 33.364Z" fill="#A2A2A2"/>
<path d="M64.224 58.06C63.976 58.06 63.8 57.992 63.696 57.856C63.6 57.72 63.568 57.532 63.6 57.292L64.74 50.104C64.78 49.88 64.86 49.716 64.98 49.612C65.108 49.5 65.28 49.444 65.496 49.444C65.688 49.444 65.836 49.488 65.94 49.576C66.052 49.656 66.148 49.8 66.228 50.008L68.268 55.432H67.92L71.784 49.888C71.896 49.728 72.016 49.616 72.144 49.552C72.272 49.48 72.432 49.444 72.624 49.444C72.856 49.444 73.024 49.512 73.128 49.648C73.24 49.784 73.276 49.972 73.236 50.212L72.096 57.4C72.064 57.616 71.984 57.78 71.856 57.892C71.736 58.004 71.564 58.06 71.34 58.06C71.116 58.06 70.948 57.992 70.836 57.856C70.724 57.72 70.684 57.532 70.716 57.292L71.592 51.772H71.868L68.592 56.464C68.504 56.592 68.412 56.684 68.316 56.74C68.228 56.788 68.116 56.812 67.98 56.812C67.828 56.812 67.704 56.776 67.608 56.704C67.52 56.632 67.444 56.52 67.38 56.368L65.592 51.82H65.856L64.968 57.4C64.936 57.616 64.856 57.78 64.728 57.892C64.608 58.004 64.44 58.06 64.224 58.06ZM76.6337 58.12C76.0577 58.12 75.5617 58.012 75.1457 57.796C74.7377 57.58 74.4217 57.272 74.1977 56.872C73.9817 56.472 73.8737 56.004 73.8737 55.468C73.8737 54.94 73.9577 54.464 74.1257 54.04C74.2937 53.616 74.5257 53.252 74.8217 52.948C75.1257 52.644 75.4737 52.412 75.8657 52.252C76.2577 52.092 76.6817 52.012 77.1377 52.012C77.7137 52.012 78.2057 52.12 78.6137 52.336C79.0297 52.552 79.3457 52.86 79.5617 53.26C79.7857 53.652 79.8977 54.12 79.8977 54.664C79.8977 55.192 79.8137 55.668 79.6457 56.092C79.4777 56.516 79.2417 56.88 78.9377 57.184C78.6417 57.488 78.2977 57.72 77.9057 57.88C77.5137 58.04 77.0897 58.12 76.6337 58.12ZM76.6697 56.98C77.0377 56.98 77.3457 56.876 77.5937 56.668C77.8497 56.46 78.0457 56.176 78.1817 55.816C78.3177 55.456 78.3857 55.056 78.3857 54.616C78.3857 54.144 78.2697 53.784 78.0377 53.536C77.8137 53.28 77.5017 53.152 77.1017 53.152C76.7417 53.152 76.4337 53.256 76.1777 53.464C75.9217 53.672 75.7257 53.956 75.5897 54.316C75.4537 54.668 75.3857 55.068 75.3857 55.516C75.3857 55.988 75.4977 56.352 75.7217 56.608C75.9537 56.856 76.2697 56.98 76.6697 56.98ZM81.4118 58.096C81.1798 58.096 81.0078 58.024 80.8958 57.88C80.7918 57.728 80.7598 57.516 80.7998 57.244L81.5198 52.756C81.5598 52.516 81.6478 52.336 81.7838 52.216C81.9278 52.096 82.1158 52.036 82.3478 52.036C82.5798 52.036 82.7478 52.112 82.8518 52.264C82.9638 52.408 82.9998 52.612 82.9598 52.876L82.8398 53.656L82.7558 53.356C82.9798 52.9 83.2718 52.564 83.6318 52.348C83.9998 52.124 84.3918 52.012 84.8078 52.012C85.2558 52.012 85.6238 52.132 85.9118 52.372C86.1998 52.604 86.3918 52.952 86.4878 53.416L86.3318 53.344C86.5398 52.912 86.8278 52.584 87.1958 52.36C87.5638 52.128 87.9918 52.012 88.4798 52.012C88.8958 52.012 89.2438 52.1 89.5238 52.276C89.8118 52.452 90.0118 52.724 90.1238 53.092C90.2438 53.46 90.2598 53.928 90.1718 54.496L89.7158 57.376C89.6838 57.608 89.5958 57.788 89.4518 57.916C89.3158 58.036 89.1278 58.096 88.8878 58.096C88.6398 58.096 88.4598 58.024 88.3478 57.88C88.2358 57.728 88.1998 57.516 88.2398 57.244L88.6718 54.472C88.7358 54.048 88.7038 53.728 88.5758 53.512C88.4478 53.296 88.2198 53.188 87.8918 53.188C87.4998 53.188 87.1758 53.336 86.9198 53.632C86.6638 53.92 86.4918 54.324 86.4037 54.844L86.0078 57.376C85.9758 57.608 85.8838 57.788 85.7318 57.916C85.5878 58.036 85.3958 58.096 85.1558 58.096C84.9158 58.096 84.7398 58.024 84.6278 57.88C84.5158 57.728 84.4798 57.516 84.5198 57.244L84.9638 54.472C85.0278 54.048 84.9958 53.728 84.8678 53.512C84.7398 53.296 84.5118 53.188 84.1838 53.188C83.7918 53.188 83.4638 53.336 83.1998 53.632C82.9438 53.92 82.7718 54.324 82.6838 54.844L82.2878 57.376C82.2158 57.856 81.9238 58.096 81.4118 58.096ZM97.305 58.12C96.761 58.12 96.289 58.04 95.889 57.88C95.497 57.712 95.193 57.48 94.977 57.184C94.769 56.88 94.665 56.532 94.665 56.14C94.665 55.828 94.717 55.536 94.821 55.264C94.933 54.992 95.085 54.74 95.277 54.508C95.477 54.276 95.705 54.064 95.961 53.872C96.225 53.672 96.505 53.492 96.801 53.332L97.245 53.092L96.981 53.416C96.733 53.128 96.553 52.844 96.441 52.564C96.329 52.276 96.273 51.996 96.273 51.724C96.273 51.276 96.385 50.88 96.609 50.536C96.833 50.184 97.137 49.912 97.521 49.72C97.913 49.52 98.361 49.42 98.865 49.42C99.441 49.42 99.905 49.576 100.257 49.888C100.617 50.192 100.797 50.592 100.797 51.088C100.797 51.48 100.693 51.832 100.485 52.144C100.285 52.448 100.017 52.724 99.681 52.972C99.353 53.212 98.997 53.436 98.613 53.644L98.637 53.284L100.341 55.456H100.053C100.213 55.232 100.345 55.024 100.449 54.832C100.553 54.64 100.645 54.428 100.725 54.196C100.813 53.964 100.905 53.688 101.001 53.368C101.057 53.184 101.137 53.048 101.241 52.96C101.353 52.872 101.501 52.828 101.685 52.828C101.901 52.828 102.061 52.884 102.165 52.996C102.277 53.108 102.301 53.272 102.237 53.488C102.117 53.92 101.993 54.296 101.865 54.616C101.737 54.928 101.589 55.22 101.421 55.492C101.253 55.756 101.053 56.036 100.821 56.332L100.833 55.96L101.781 57.1C101.917 57.26 101.977 57.42 101.961 57.58C101.953 57.732 101.889 57.86 101.769 57.964C101.649 58.06 101.485 58.108 101.277 58.108C101.173 58.108 101.065 58.092 100.953 58.06C100.841 58.036 100.745 57.972 100.665 57.868L99.909 56.908L100.209 56.92C99.817 57.296 99.377 57.592 98.889 57.808C98.401 58.016 97.873 58.12 97.305 58.12ZM97.533 56.932C97.933 56.932 98.293 56.86 98.613 56.716C98.933 56.564 99.233 56.34 99.513 56.044L99.441 56.428L97.389 53.872L97.965 53.944L97.593 54.148C97.353 54.284 97.121 54.436 96.897 54.604C96.681 54.764 96.505 54.952 96.369 55.168C96.233 55.376 96.165 55.628 96.165 55.924C96.165 56.244 96.281 56.492 96.513 56.668C96.745 56.844 97.085 56.932 97.533 56.932ZM98.781 50.488C98.437 50.488 98.165 50.592 97.965 50.8C97.765 51 97.665 51.268 97.665 51.604C97.665 51.732 97.681 51.856 97.713 51.976C97.753 52.088 97.813 52.212 97.893 52.348C97.981 52.484 98.097 52.644 98.241 52.828L97.941 52.78C98.301 52.612 98.597 52.448 98.829 52.288C99.069 52.12 99.245 51.944 99.357 51.76C99.477 51.568 99.537 51.36 99.537 51.136C99.537 50.92 99.469 50.76 99.333 50.656C99.205 50.544 99.021 50.488 98.781 50.488ZM107.434 58C107.162 58 106.958 57.924 106.822 57.772C106.694 57.612 106.65 57.396 106.69 57.124L107.77 50.284C107.81 50.036 107.902 49.852 108.046 49.732C108.198 49.604 108.398 49.54 108.646 49.54H111.37C111.994 49.54 112.502 49.628 112.894 49.804C113.286 49.972 113.574 50.208 113.758 50.512C113.942 50.808 114.034 51.152 114.034 51.544C114.034 52.152 113.842 52.652 113.458 53.044C113.074 53.436 112.57 53.68 111.946 53.776V53.584C112.474 53.68 112.886 53.896 113.182 54.232C113.478 54.568 113.626 54.984 113.626 55.48C113.626 56.304 113.354 56.932 112.81 57.364C112.266 57.788 111.514 58 110.554 58H107.434ZM108.202 56.836H110.482C111.034 56.836 111.446 56.712 111.718 56.464C111.998 56.216 112.138 55.86 112.138 55.396C112.138 55.028 112.014 54.752 111.766 54.568C111.526 54.384 111.174 54.292 110.71 54.292H108.61L108.202 56.836ZM108.802 53.128H110.854C111.39 53.128 111.806 53.008 112.102 52.768C112.398 52.528 112.546 52.18 112.546 51.724C112.546 51.396 112.43 51.144 112.198 50.968C111.974 50.792 111.618 50.704 111.13 50.704H109.186L108.802 53.128ZM116.668 58.12C116.308 58.12 115.98 58.04 115.684 57.88C115.388 57.712 115.148 57.492 114.964 57.22C114.788 56.948 114.7 56.644 114.7 56.308C114.7 55.892 114.816 55.556 115.048 55.3C115.28 55.036 115.64 54.84 116.128 54.712C116.616 54.584 117.24 54.52 118 54.52H118.96L118.828 55.384H118.072C117.6 55.384 117.224 55.408 116.944 55.456C116.664 55.504 116.464 55.588 116.344 55.708C116.224 55.828 116.164 55.996 116.164 56.212C116.164 56.492 116.256 56.708 116.44 56.86C116.632 57.012 116.864 57.088 117.136 57.088C117.392 57.088 117.624 57.036 117.832 56.932C118.04 56.82 118.216 56.664 118.36 56.464C118.504 56.256 118.596 56.012 118.636 55.732L118.864 54.304C118.928 53.928 118.868 53.64 118.684 53.44C118.508 53.24 118.196 53.14 117.748 53.14C117.484 53.14 117.228 53.168 116.98 53.224C116.732 53.272 116.476 53.356 116.212 53.476C116.06 53.54 115.924 53.56 115.804 53.536C115.684 53.512 115.584 53.46 115.504 53.38C115.432 53.292 115.392 53.192 115.384 53.08C115.376 52.96 115.408 52.844 115.48 52.732C115.56 52.62 115.688 52.524 115.864 52.444C116.2 52.292 116.548 52.184 116.908 52.12C117.276 52.048 117.62 52.012 117.94 52.012C118.572 52.012 119.068 52.128 119.428 52.36C119.788 52.592 120.032 52.908 120.16 53.308C120.288 53.708 120.312 54.164 120.232 54.676L119.812 57.352C119.78 57.6 119.692 57.788 119.548 57.916C119.412 58.036 119.228 58.096 118.996 58.096C118.78 58.096 118.616 58.028 118.504 57.892C118.4 57.748 118.368 57.54 118.408 57.268L118.528 56.512L118.612 56.752C118.5 57.064 118.34 57.324 118.132 57.532C117.932 57.732 117.704 57.88 117.448 57.976C117.2 58.072 116.94 58.12 116.668 58.12ZM124.73 58.12C124.282 58.12 123.882 58.012 123.53 57.796C123.186 57.58 122.946 57.26 122.81 56.836L122.918 56.536L122.798 57.34C122.766 57.588 122.682 57.776 122.546 57.904C122.418 58.032 122.23 58.096 121.982 58.096C121.75 58.096 121.574 58.02 121.454 57.868C121.342 57.708 121.306 57.492 121.346 57.22L122.462 50.2C122.502 49.952 122.594 49.764 122.738 49.636C122.882 49.508 123.078 49.444 123.326 49.444C123.558 49.444 123.73 49.52 123.842 49.672C123.954 49.824 123.99 50.04 123.95 50.32L123.482 53.236H123.362C123.578 52.852 123.866 52.552 124.226 52.336C124.586 52.12 124.998 52.012 125.462 52.012C125.91 52.012 126.298 52.116 126.626 52.324C126.962 52.524 127.222 52.816 127.406 53.2C127.59 53.576 127.682 54.024 127.682 54.544C127.682 55.208 127.562 55.812 127.322 56.356C127.09 56.892 126.754 57.32 126.314 57.64C125.874 57.96 125.346 58.12 124.73 58.12ZM124.454 56.98C124.822 56.98 125.13 56.876 125.378 56.668C125.634 56.46 125.83 56.176 125.966 55.816C126.102 55.456 126.17 55.056 126.17 54.616C126.17 54.144 126.054 53.784 125.822 53.536C125.598 53.28 125.286 53.152 124.886 53.152C124.526 53.152 124.218 53.256 123.962 53.464C123.706 53.672 123.51 53.956 123.374 54.316C123.238 54.668 123.17 55.068 123.17 55.516C123.17 55.988 123.282 56.352 123.506 56.608C123.738 56.856 124.054 56.98 124.454 56.98ZM129.48 60.256C129.288 60.256 129.14 60.212 129.036 60.124C128.932 60.036 128.876 59.92 128.868 59.776C128.86 59.64 128.904 59.492 129 59.332L130.14 57.46L130.044 58.084L128.664 53.068C128.608 52.868 128.6 52.692 128.64 52.54C128.68 52.38 128.76 52.256 128.88 52.168C129.008 52.08 129.164 52.036 129.348 52.036C129.556 52.036 129.712 52.088 129.816 52.192C129.928 52.288 130.012 52.464 130.068 52.72L131.028 56.692H130.656L133.008 52.576C133.12 52.384 133.236 52.248 133.356 52.168C133.476 52.08 133.632 52.036 133.824 52.036C134.016 52.036 134.164 52.08 134.268 52.168C134.38 52.256 134.44 52.372 134.448 52.516C134.464 52.652 134.424 52.804 134.328 52.972L130.296 59.716C130.184 59.908 130.068 60.044 129.948 60.124C129.828 60.212 129.672 60.256 129.48 60.256ZM142.282 58.12C141.53 58.12 140.862 57.98 140.278 57.7C139.702 57.412 139.246 56.984 138.91 56.416C138.582 55.848 138.418 55.136 138.418 54.28C138.418 53.592 138.518 52.956 138.718 52.372C138.926 51.78 139.222 51.264 139.606 50.824C139.998 50.384 140.478 50.04 141.046 49.792C141.614 49.544 142.258 49.42 142.978 49.42C143.442 49.42 143.886 49.48 144.31 49.6C144.734 49.72 145.106 49.896 145.426 50.128C145.57 50.232 145.658 50.356 145.69 50.5C145.73 50.636 145.73 50.772 145.69 50.908C145.65 51.044 145.582 51.164 145.486 51.268C145.398 51.364 145.29 51.424 145.162 51.448C145.034 51.464 144.902 51.428 144.766 51.34C144.454 51.132 144.15 50.988 143.854 50.908C143.558 50.828 143.25 50.788 142.93 50.788C142.314 50.788 141.79 50.94 141.358 51.244C140.934 51.54 140.61 51.948 140.386 52.468C140.162 52.988 140.05 53.576 140.05 54.232C140.05 54.824 140.138 55.308 140.314 55.684C140.498 56.052 140.766 56.324 141.118 56.5C141.478 56.668 141.914 56.752 142.426 56.752C142.722 56.752 143.006 56.716 143.278 56.644C143.55 56.572 143.83 56.452 144.118 56.284C144.278 56.188 144.422 56.152 144.55 56.176C144.686 56.192 144.798 56.248 144.886 56.344C144.974 56.44 145.03 56.556 145.054 56.692C145.086 56.82 145.074 56.952 145.018 57.088C144.97 57.216 144.874 57.328 144.73 57.424C144.378 57.656 143.982 57.832 143.542 57.952C143.102 58.064 142.682 58.12 142.282 58.12ZM147.828 58.12C147.468 58.12 147.14 58.04 146.844 57.88C146.548 57.712 146.308 57.492 146.124 57.22C145.948 56.948 145.86 56.644 145.86 56.308C145.86 55.892 145.976 55.556 146.208 55.3C146.44 55.036 146.8 54.84 147.288 54.712C147.776 54.584 148.4 54.52 149.16 54.52H150.12L149.988 55.384H149.232C148.76 55.384 148.384 55.408 148.104 55.456C147.824 55.504 147.624 55.588 147.504 55.708C147.384 55.828 147.324 55.996 147.324 56.212C147.324 56.492 147.416 56.708 147.6 56.86C147.792 57.012 148.024 57.088 148.296 57.088C148.552 57.088 148.784 57.036 148.992 56.932C149.2 56.82 149.376 56.664 149.52 56.464C149.664 56.256 149.756 56.012 149.796 55.732L150.024 54.304C150.088 53.928 150.028 53.64 149.844 53.44C149.668 53.24 149.356 53.14 148.908 53.14C148.644 53.14 148.388 53.168 148.14 53.224C147.892 53.272 147.636 53.356 147.372 53.476C147.22 53.54 147.084 53.56 146.964 53.536C146.844 53.512 146.744 53.46 146.664 53.38C146.592 53.292 146.552 53.192 146.544 53.08C146.536 52.96 146.568 52.844 146.64 52.732C146.72 52.62 146.848 52.524 147.024 52.444C147.36 52.292 147.708 52.184 148.068 52.12C148.436 52.048 148.78 52.012 149.1 52.012C149.732 52.012 150.228 52.128 150.588 52.36C150.948 52.592 151.192 52.908 151.32 53.308C151.448 53.708 151.472 54.164 151.392 54.676L150.972 57.352C150.94 57.6 150.852 57.788 150.708 57.916C150.572 58.036 150.388 58.096 150.156 58.096C149.94 58.096 149.776 58.028 149.664 57.892C149.56 57.748 149.528 57.54 149.568 57.268L149.688 56.512L149.772 56.752C149.66 57.064 149.5 57.324 149.292 57.532C149.092 57.732 148.864 57.88 148.608 57.976C148.36 58.072 148.1 58.12 147.828 58.12ZM153.13 58.096C152.89 58.096 152.714 58.024 152.602 57.88C152.498 57.728 152.466 57.516 152.506 57.244L153.214 52.756C153.254 52.516 153.346 52.336 153.49 52.216C153.634 52.096 153.822 52.036 154.054 52.036C154.286 52.036 154.454 52.108 154.558 52.252C154.67 52.396 154.706 52.604 154.666 52.876L154.558 53.548H154.438C154.598 53.076 154.862 52.712 155.23 52.456C155.598 52.192 156.034 52.044 156.538 52.012C156.762 51.996 156.91 52.028 156.982 52.108C157.062 52.188 157.102 52.32 157.102 52.504C157.102 52.768 157.042 52.964 156.922 53.092C156.802 53.212 156.614 53.284 156.358 53.308L156.01 53.344C155.474 53.4 155.09 53.564 154.858 53.836C154.626 54.1 154.47 54.472 154.39 54.952L154.006 57.376C153.974 57.616 153.882 57.796 153.73 57.916C153.586 58.036 153.386 58.096 153.13 58.096ZM160.04 58.12C159.448 58.12 158.932 58.012 158.492 57.796C158.06 57.572 157.724 57.26 157.484 56.86C157.244 56.46 157.124 55.992 157.124 55.456C157.124 54.8 157.26 54.216 157.532 53.704C157.812 53.184 158.196 52.772 158.684 52.468C159.172 52.164 159.732 52.012 160.364 52.012C160.852 52.012 161.26 52.096 161.588 52.264C161.916 52.432 162.176 52.66 162.368 52.948C162.56 53.228 162.688 53.548 162.752 53.908C162.816 54.268 162.828 54.636 162.788 55.012C162.772 55.18 162.728 55.288 162.656 55.336C162.584 55.384 162.484 55.408 162.356 55.408H158.324L158.444 54.544H161.804L161.6 54.724C161.648 54.404 161.636 54.12 161.564 53.872C161.492 53.616 161.356 53.412 161.156 53.26C160.964 53.108 160.696 53.032 160.352 53.032C160 53.032 159.704 53.112 159.464 53.272C159.224 53.432 159.036 53.64 158.9 53.896C158.764 54.144 158.672 54.412 158.624 54.7L158.564 55.072C158.468 55.656 158.564 56.12 158.852 56.464C159.14 56.808 159.58 56.98 160.172 56.98C160.412 56.98 160.66 56.956 160.916 56.908C161.172 56.852 161.404 56.764 161.612 56.644C161.764 56.556 161.896 56.52 162.008 56.536C162.128 56.544 162.22 56.588 162.284 56.668C162.356 56.74 162.4 56.832 162.416 56.944C162.432 57.048 162.412 57.16 162.356 57.28C162.308 57.392 162.22 57.492 162.092 57.58C161.812 57.764 161.48 57.9 161.096 57.988C160.712 58.076 160.36 58.12 160.04 58.12Z" fill="#A1A1A1"/>
</g>
<defs>
<clipPath id="clip0_94_53">
<rect width="215.537" height="61.9458" fill="white" transform="translate(0.791748 0.194824)"/>
</clipPath>
</defs>
</svg>
