<svg width="384" height="121" viewBox="0 0 384 121" fill="none" xmlns="http://www.w3.org/2000/svg">
<path d="M15.3558 99.7187C3.16542 94.0437 -1.16895 89.2473 2.3527 85.3294C3.70741 83.4378 6.07765 83.4378 9.4634 85.3294C6.75501 67.6276 8.31251 56.75 14.1359 52.6966C22.8726 46.6165 69.1949 31.0102 83.6201 45.1977C93.2359 54.6561 98.315 64.5201 98.8576 74.7897C103.326 74.3841 105.561 77.0865 105.561 82.8971C102.175 92.4899 94.4547 99.3809 82.4002 103.57C89.4435 108.975 90.3916 112.826 85.2445 115.123C80.0974 117.421 73.4608 118.569 65.3346 118.569H59.646H55.7857H48.4711L46.2368 117.352C28.223 123.568 16.7779 120.731 11.9016 108.84C11.2242 106.138 12.3756 103.097 15.3558 99.7187Z" fill="white"/>
<path d="M89.271 86.4197C98.7431 87.6461 108.755 49.6307 89.271 35.9547C82.4786 31.188 73.2794 28.532 61.6734 27.9866C70.8219 11.0971 70.0714 1.83535 59.4218 0.201253C43.4474 -2.25145 35.9196 18.3666 43.242 26.5569C49.9999 34.1168 18.6657 32.4821 11.4986 48.4185C6.71945 59.0427 6.03635 71.7098 9.44928 86.4197C11.0883 62.1753 26.6535 47.9419 56.1447 43.7195C82.1541 42.9014 79.799 85.1949 89.271 86.4197Z" fill="#B3D968"/>
<path d="M49.7788 11.3792C51.2762 11.8391 54.6175 15.6308 50.8152 18.6184C47.0145 21.6077 41.3699 13.907 46.323 8.38997C51.2762 2.87452 56.9726 6.70374 58.4183 11.3792C63.0657 26.3958 23.4371 42.6387 12.4802 64.9085C6.81565 76.4212 8.45835 88.5351 17.4083 101.25L15.6788 102.286C6.88986 89.1681 5.6611 76.3727 11.9925 63.8996C25.5868 37.1216 61.8364 27.3155 56.4599 11.3792C54.5 5.56968 49.9921 6.66307 47.9349 9.0798C40.7928 17.4703 54.0405 23.1015 49.7788 11.3792Z" fill="#7C3939"/>
<path d="M41.1002 39.2678C56.7672 28.082 80.4215 38.6546 85.6444 50.9134C89.1263 59.086 90.2526 71.8041 89.0233 89.068C94.1432 77.7294 98.4954 73.286 102.08 75.7376C107.456 79.4151 99.0081 95.888 86.8736 101.787C98.4703 99.4122 113.139 84.1657 102.08 73.7448C99.5198 71.191 96.1915 72.7745 92.095 78.4954C92.0207 64.7292 89.8705 54.2582 85.6444 47.0826C78.4255 34.8238 52.9273 27.3155 41.1002 39.2678Z" fill="#7C3939"/>
<path d="M54.0625 68.8128C51.5286 68.4687 54.1597 63.3646 59.4766 62.9892C64.9112 62.6075 68.2133 66.1693 66.3882 66.9733C65.1213 67.5333 62.5875 63.0659 59.4766 64.9054C56.3658 66.7449 56.5963 69.1569 54.0625 68.8128Z" fill="#7C3939"/>
<path d="M37.5503 70.0173C39.8928 68.9911 35.9556 64.8068 30.7406 65.9034C25.4095 67.0249 23.216 71.3547 25.1916 71.6284C26.5651 71.8193 27.7709 66.8294 31.2674 67.7444C34.7656 68.6611 35.2093 71.0434 37.5503 70.0173Z" fill="#7C3939"/>
<path d="M56.6339 89.1086C56.0569 92.04 60.9537 91.8679 63.8905 91.4659C66.8288 91.0624 72.9345 89.0523 70.3991 87.0407C67.8652 85.0291 67.5767 88.8224 63.315 88.4767C59.0517 88.1326 57.2094 86.1788 56.6339 89.1086Z" fill="#7C3939"/>
<path d="M24.1897 90.5727C23.7209 93.0755 27.7035 92.9285 30.0931 92.5843C32.4826 92.2418 37.4499 90.5242 35.3881 88.8067C33.3262 87.0908 33.0926 90.3271 29.6243 90.0331C26.1575 89.739 24.6585 88.0715 24.1897 90.5727Z" fill="#7C3939"/>
<path d="M46.0346 97.9465C46.9424 96.071 47.8205 98.8084 49.7789 98.8084C51.7372 98.8084 52.6012 96.9125 53.6376 97.9465C54.6756 98.9804 52.1402 101.71 49.7789 101.25C47.4175 100.79 45.6143 98.8146 46.0346 97.9465Z" fill="#7C3939"/>
<path d="M74.2588 97.29C77.4718 97.29 80.0764 95.7786 80.0764 93.9142C80.0764 92.0498 77.4718 90.5384 74.2588 90.5384C71.0459 90.5384 68.4412 92.0498 68.4412 93.9142C68.4412 95.7786 71.0459 97.29 74.2588 97.29Z" fill="#F6C346"/>
<path d="M22.0155 98.4393C24.5605 98.4393 26.6235 97.1711 26.6235 95.6069C26.6235 94.0426 24.5605 92.7744 22.0155 92.7744C19.4706 92.7744 17.4075 94.0426 17.4075 95.6069C17.4075 97.1711 19.4706 98.4393 22.0155 98.4393Z" fill="#F6C346"/>
<path d="M8.99772 84.624C5.41337 82.0701 2.8278 81.7896 1.24102 83.7824C-1.13914 86.7701 -0.927466 95.5047 9.4493 99.4122C11.657 100.433 13.7335 101.046 15.6788 101.25L13.9133 98.2625C3.16125 94.4311 -0.320141 90.2682 3.4691 85.7737C5.3632 84.5995 7.3566 85.136 9.4493 87.3833L8.99772 84.624Z" fill="#7C3939"/>
<path d="M47.9051 112.786C49.2097 111.33 52.8975 118.608 50.7463 119.375C48.5966 120.141 47.2905 120.218 45.9075 118.685C39.457 122.592 9.42736 122.976 11.0408 108.342C12.6542 93.709 43.2969 98.0748 51.5146 103.822C59.7323 109.569 62.1893 118.148 60.0396 118.685C58.8009 118.995 59.4485 116.071 56.1448 110.675C54.4529 107.912 50.7714 105.852 49.7475 105.234C44.8006 102.248 16.7247 92.0994 13.8819 108.342C12.8847 116.31 23.8667 120.485 33.4658 119.797C39.8662 119.337 44.3464 118.431 46.9063 117.077C47.6746 118.609 48.6217 119.145 49.7475 118.685C50.8231 118.455 46.599 114.241 47.9051 112.786Z" fill="#7C3939"/>
<path d="M53.9841 114.84C52.7579 112.106 50.0955 110.462 50.7776 110.273C51.4361 110.09 53.8445 111.255 55.2792 113.202C56.971 115.499 57.57 118.662 56.1447 118.796C54.7524 118.927 55.3168 117.818 53.9841 114.84Z" fill="#7C3939"/>
<path d="M52.0821 104.756C60.0317 101.027 67.6353 100.038 74.8928 101.787C85.7792 104.411 91.7406 121.563 65.0429 117.685C63.1425 119.064 75.6988 123.805 86.8736 115.788C98.0469 107.773 76.4483 90.4476 50.4405 103.636C50.7865 104.325 51.3337 104.698 52.0821 104.756Z" fill="#7C3939"/>
<path d="M153.465 81.7279C154.517 82.0096 155.325 82.5543 155.888 83.3619C156.452 84.1507 156.733 85.0991 156.733 86.2072C156.733 88.0102 156.095 89.4095 154.818 90.4049C153.559 91.4003 151.831 91.898 149.634 91.898H142.225C141.68 91.898 141.257 91.7477 140.957 91.4472C140.675 91.1279 140.553 90.6866 140.591 90.1231L141.887 73.7552C141.924 73.2105 142.103 72.7879 142.422 72.4874C142.76 72.1869 143.201 72.0367 143.746 72.0367H150.451C152.573 72.0367 154.188 72.4781 155.297 73.3608C156.423 74.2435 156.987 75.4455 156.987 76.9668C156.987 78.0937 156.686 79.0609 156.085 79.8685C155.503 80.6761 154.63 81.2959 153.465 81.7279ZM145.352 74.8539L144.901 80.4038H149.578C150.892 80.4038 151.869 80.169 152.508 79.6995C153.146 79.2112 153.465 78.4599 153.465 77.4457C153.465 75.7178 152.282 74.8539 149.916 74.8539H145.352ZM149.38 89.0808C150.695 89.0808 151.681 88.8366 152.338 88.3483C152.996 87.86 153.324 87.09 153.324 86.0382C153.324 85.0991 153.024 84.3948 152.423 83.9253C151.841 83.4558 150.939 83.221 149.718 83.221H144.676L144.225 89.0808H149.38Z" fill="#F6C346"/>
<path d="M166.132 77.7838C167.991 77.7838 169.381 78.2064 170.301 79.0515C171.222 79.8967 171.682 81.1738 171.682 82.8829C171.682 83.2398 171.672 83.5121 171.654 83.6999L171.118 90.433C171.081 90.9589 170.902 91.3627 170.583 91.6444C170.283 91.9262 169.869 92.067 169.344 92.067C168.855 92.067 168.461 91.9168 168.16 91.6163C167.879 91.297 167.757 90.8932 167.794 90.4049L167.822 89.8696C167.447 90.5833 166.921 91.1373 166.245 91.5317C165.569 91.9262 164.799 92.1234 163.935 92.1234C163.033 92.1234 162.216 91.9543 161.484 91.6163C160.77 91.2594 160.206 90.7805 159.793 90.1795C159.38 89.5597 159.173 88.8648 159.173 88.0948C159.173 87.043 159.436 86.2072 159.962 85.5874C160.507 84.9489 161.371 84.4887 162.554 84.207C163.737 83.9065 165.315 83.7563 167.287 83.7563H168.301L168.329 83.221C168.405 82.2819 168.226 81.587 167.794 81.1363C167.362 80.6855 166.677 80.4601 165.738 80.4601C164.629 80.4601 163.362 80.8264 161.934 81.5588C161.69 81.6715 161.455 81.7279 161.23 81.7279C160.892 81.7279 160.61 81.6152 160.385 81.3898C160.16 81.1457 160.047 80.8545 160.047 80.5165C160.047 80.2723 160.122 80.0282 160.272 79.784C160.422 79.5211 160.638 79.3051 160.92 79.136C161.596 78.7229 162.395 78.3942 163.315 78.15C164.235 77.9059 165.174 77.7838 166.132 77.7838ZM164.836 89.5879C165.719 89.5879 166.461 89.278 167.062 88.6582C167.681 88.0196 168.029 87.212 168.104 86.2354L168.16 85.6156H167.372C166.17 85.6156 165.221 85.6814 164.526 85.8128C163.85 85.9443 163.362 86.1697 163.061 86.4889C162.761 86.7894 162.61 87.2026 162.61 87.7285C162.61 88.292 162.808 88.7427 163.202 89.0808C163.615 89.4188 164.16 89.5879 164.836 89.5879Z" fill="#F6C346"/>
<path d="M183.318 77.7838C184.464 77.7838 185.478 78.0561 186.361 78.6008C187.262 79.1267 187.957 79.8967 188.445 80.9109C188.934 81.9063 189.178 83.0801 189.178 84.4324C189.178 85.9349 188.905 87.2684 188.361 88.4328C187.816 89.5973 187.046 90.5082 186.051 91.1655C185.055 91.8041 183.919 92.1234 182.642 92.1234C181.628 92.1234 180.745 91.9168 179.994 91.5036C179.242 91.0904 178.651 90.4988 178.219 89.7287L178.163 90.3767C178.125 90.9026 177.937 91.3158 177.599 91.6163C177.261 91.9168 176.829 92.067 176.303 92.067C175.777 92.067 175.364 91.9168 175.064 91.6163C174.782 91.3158 174.65 90.9026 174.669 90.3767L176.021 73.5016C176.04 73.0133 176.228 72.6283 176.585 72.3466C176.961 72.0461 177.411 71.8958 177.937 71.8958C178.463 71.8958 178.867 72.0367 179.149 72.3184C179.43 72.6001 179.562 72.9758 179.543 73.4453L179.008 79.8967C179.458 79.2206 180.059 78.7041 180.811 78.3472C181.581 77.9716 182.417 77.7838 183.318 77.7838ZM182.022 89.3907C183.149 89.3907 184.032 88.9681 184.67 88.1229C185.328 87.259 185.656 86.0851 185.656 84.6014C185.656 83.2867 185.356 82.2725 184.755 81.5588C184.154 80.8451 183.299 80.4883 182.191 80.4883C181.083 80.4883 180.2 80.9203 179.543 81.7842C178.904 82.6482 178.585 83.8126 178.585 85.2775C178.585 86.6298 178.876 87.6534 179.458 88.3483C180.059 89.0432 180.914 89.3907 182.022 89.3907Z" fill="#F6C346"/>
<path d="M201.68 78.8825C201.849 78.5444 202.065 78.3003 202.328 78.15C202.591 77.981 202.872 77.8965 203.173 77.8965C203.586 77.8965 203.952 78.0373 204.272 78.3191C204.61 78.6008 204.779 78.9388 204.779 79.3333C204.779 79.5774 204.713 79.8216 204.582 80.0657L196.13 96.152C195.961 96.49 195.736 96.7342 195.454 96.8844C195.191 97.0535 194.919 97.138 194.637 97.138C194.242 97.138 193.895 96.9971 193.594 96.7154C193.313 96.4525 193.172 96.1238 193.172 95.7294C193.172 95.4664 193.238 95.2035 193.369 94.9406L195.144 91.4754L191.003 79.9812C190.946 79.8122 190.918 79.6525 190.918 79.5023C190.918 79.0515 191.106 78.6759 191.482 78.3754C191.876 78.0561 192.308 77.8965 192.777 77.8965C193.097 77.8965 193.378 77.981 193.623 78.15C193.886 78.3191 194.073 78.5726 194.186 78.9107L197.229 87.813L201.68 78.8825Z" fill="#F6C346"/>
<path d="M223.255 92.1515C221.415 92.1515 219.809 91.7759 218.438 91.0246C217.086 90.2546 216.043 89.1559 215.311 87.7285C214.578 86.3011 214.212 84.6202 214.212 82.6857C214.212 80.5071 214.625 78.5914 215.452 76.9386C216.278 75.2859 217.452 74.0181 218.973 73.1354C220.495 72.2339 222.269 71.7831 224.298 71.7831C225.613 71.7831 226.815 71.9616 227.904 72.3184C229.012 72.6565 229.923 73.1072 230.637 73.6707C231.181 74.0275 231.453 74.5064 231.453 75.1074C231.453 75.5206 231.322 75.8775 231.059 76.178C230.815 76.4597 230.496 76.6006 230.101 76.6006C229.763 76.6006 229.453 76.4973 229.172 76.2907C227.819 75.2577 226.232 74.7412 224.41 74.7412C222.363 74.7412 220.767 75.4549 219.621 76.8823C218.476 78.2909 217.903 80.2348 217.903 82.7139C217.903 84.7986 218.382 86.4044 219.34 87.5313C220.316 88.6394 221.697 89.1935 223.481 89.1935C225.096 89.1935 226.683 88.677 228.242 87.644C228.561 87.4562 228.862 87.3623 229.143 87.3623C229.5 87.3623 229.791 87.4938 230.017 87.7567C230.242 88.0196 230.355 88.3389 230.355 88.7145C230.355 89.278 230.111 89.7475 229.622 90.1231C228.909 90.7241 227.988 91.2125 226.861 91.5881C225.753 91.9637 224.551 92.1515 223.255 92.1515Z" fill="#F6C346"/>
<path d="M239.341 77.7838C241.2 77.7838 242.59 78.2064 243.51 79.0515C244.431 79.8967 244.891 81.1738 244.891 82.8829C244.891 83.2398 244.881 83.5121 244.863 83.6999L244.327 90.433C244.29 90.9589 244.111 91.3627 243.792 91.6444C243.491 91.9262 243.078 92.067 242.552 92.067C242.064 92.067 241.67 91.9168 241.369 91.6163C241.087 91.297 240.965 90.8932 241.003 90.4049L241.031 89.8696C240.655 90.5833 240.13 91.1373 239.453 91.5317C238.777 91.9262 238.007 92.1234 237.143 92.1234C236.242 92.1234 235.425 91.9543 234.692 91.6163C233.979 91.2594 233.415 90.7805 233.002 90.1795C232.589 89.5597 232.382 88.8648 232.382 88.0948C232.382 87.043 232.645 86.2072 233.171 85.5874C233.716 84.9489 234.58 84.4887 235.763 84.207C236.946 83.9065 238.524 83.7563 240.496 83.7563H241.51L241.538 83.221C241.613 82.2819 241.435 81.587 241.003 81.1363C240.571 80.6855 239.885 80.4601 238.946 80.4601C237.838 80.4601 236.571 80.8264 235.143 81.5588C234.899 81.6715 234.664 81.7279 234.439 81.7279C234.101 81.7279 233.819 81.6152 233.594 81.3898C233.368 81.1457 233.256 80.8545 233.256 80.5165C233.256 80.2723 233.331 80.0282 233.481 79.784C233.631 79.5211 233.847 79.3051 234.129 79.136C234.805 78.7229 235.603 78.3942 236.524 78.15C237.444 77.9059 238.383 77.7838 239.341 77.7838ZM238.045 89.5879C238.928 89.5879 239.669 89.278 240.27 88.6582C240.89 88.0196 241.238 87.212 241.313 86.2354L241.369 85.6156H240.58C239.378 85.6156 238.43 85.6814 237.735 85.8128C237.059 85.9443 236.571 86.1697 236.27 86.4889C235.97 86.7894 235.819 87.2026 235.819 87.7285C235.819 88.292 236.016 88.7427 236.411 89.0808C236.824 89.4188 237.369 89.5879 238.045 89.5879Z" fill="#F6C346"/>
<path d="M256.696 77.8401C257.109 77.8026 257.438 77.8965 257.682 78.1219C257.945 78.3284 258.076 78.6383 258.076 79.0515C258.076 79.615 257.945 80.0375 257.682 80.3193C257.419 80.601 256.959 80.7794 256.301 80.8545L255.541 80.9391C254.32 81.0705 253.428 81.418 252.864 81.9814C252.301 82.5261 251.972 83.3525 251.878 84.4606L251.4 90.3767C251.362 90.9401 251.165 91.3627 250.808 91.6444C250.451 91.9262 250.028 92.067 249.54 92.067C249.033 92.067 248.62 91.9262 248.301 91.6444C247.981 91.3627 247.84 90.9401 247.878 90.3767L248.78 79.4459C248.817 78.9201 249.014 78.5257 249.371 78.2627C249.747 77.981 250.169 77.8401 250.639 77.8401C251.127 77.8401 251.503 77.9716 251.766 78.2345C252.047 78.4975 252.17 78.8825 252.132 79.3896L252.076 80.1502C252.564 79.4553 253.184 78.9201 253.935 78.5444C254.686 78.15 255.503 77.9246 256.386 77.8683L256.696 77.8401Z" fill="#F6C346"/>
<path d="M271.009 84.4042C271.009 84.7986 270.896 85.1085 270.671 85.3339C270.464 85.5405 270.192 85.6438 269.854 85.6438H261.486C261.543 86.8834 261.89 87.8224 262.529 88.461C263.186 89.0996 264.106 89.4188 265.29 89.4188C265.947 89.4188 266.539 89.3437 267.065 89.1935C267.609 89.0244 268.144 88.7803 268.67 88.461C268.914 88.3295 269.149 88.2638 269.375 88.2638C269.694 88.2638 269.938 88.3859 270.107 88.63C270.295 88.8554 270.389 89.1371 270.389 89.4752C270.389 90.0198 270.154 90.4706 269.685 90.8274C269.177 91.2031 268.501 91.513 267.656 91.7571C266.83 92.0013 265.966 92.1234 265.064 92.1234C263.656 92.1234 262.426 91.851 261.374 91.3064C260.322 90.7429 259.505 89.9541 258.923 88.9399C258.359 87.9257 258.078 86.7425 258.078 85.3902C258.078 83.9253 258.369 82.62 258.951 81.4743C259.533 80.3099 260.35 79.4084 261.402 78.7698C262.454 78.1125 263.656 77.7838 265.008 77.7838C266.924 77.7838 268.398 78.3566 269.431 79.5023C270.483 80.6479 271.009 82.2819 271.009 84.4042ZM265.149 80.2629C263.158 80.2629 261.975 81.4274 261.599 83.7563H268.022C268.041 82.6106 267.797 81.7467 267.29 81.1644C266.783 80.5634 266.069 80.2629 265.149 80.2629Z" fill="#F6C346"/>
<path d="M185.431 48.8064C185.932 48.8064 186.183 49.4846 186.183 50.8409C186.183 51.578 185.873 52.4773 185.254 53.5388C184.635 54.5708 183.824 55.5291 182.822 56.4136C181.849 57.2687 180.758 57.9763 179.549 58.5365C178.34 59.0968 177.057 59.3769 175.701 59.3769C174.374 59.3769 173.327 58.9493 172.561 58.0943C171.824 57.2097 171.455 56.2367 171.455 55.1752C171.455 54.0843 171.632 52.8607 171.986 51.5043C172.34 50.148 172.723 48.7327 173.136 47.2585C174.256 43.337 174.831 40.5801 174.861 38.9879C174.861 38.3097 174.772 37.7938 174.595 37.4399C174.418 37.0566 174.079 36.865 173.578 36.865C172.693 36.865 171.75 37.3957 170.747 38.4572C169.745 39.5186 168.801 40.8749 167.917 42.5261C165.882 46.3002 164.806 49.9858 164.688 53.583C164.747 53.9958 164.806 54.4086 164.865 54.8214C164.924 55.2342 164.954 55.6765 164.954 56.1482C164.954 57.0918 164.482 57.9616 163.538 58.7577C162.624 59.5243 161.592 59.9076 160.442 59.9076C159.764 59.9076 159.263 59.5833 158.939 58.9346C158.614 58.2564 158.452 57.4308 158.452 56.4578C158.452 55.4848 158.673 54.158 159.116 52.4773C159.558 50.7967 160.044 49.0128 160.575 47.1258C161.99 42.1428 162.713 38.4277 162.742 35.9804C162.742 34.742 162.58 33.769 162.256 33.0614C161.961 32.3537 161.371 31.9999 160.487 31.9999C158.894 31.9999 157.317 33.1351 155.754 35.4055C154.191 37.6758 152.791 41.1993 151.553 45.9759C151.228 47.2142 150.978 48.2905 150.801 49.2045L150.756 50.0448C151.317 52.7575 151.597 54.5266 151.597 55.3521C151.597 57.0623 150.992 58.2122 149.783 58.8019C149.223 59.0673 148.678 59.3179 148.147 59.5538C147.646 59.7897 147.1 59.9076 146.511 59.9076C145.036 59.9076 144.299 58.5071 144.299 55.706C144.299 52.8754 145.081 47.3617 146.643 39.1648C147.204 36.2163 147.484 34.5651 147.484 34.2113C147.484 31.823 146.879 30.6289 145.67 30.6289C145.257 30.6289 144.874 30.7468 144.52 30.9827C144.196 31.2186 143.857 31.4692 143.503 31.7346C143.179 31.9999 142.84 32.2505 142.486 32.4864C142.132 32.7223 141.719 32.8403 141.248 32.8403C140.805 32.8403 140.584 32.4422 140.584 31.6461C140.584 30.0244 141.336 28.6976 142.84 27.6656C144.284 26.6041 146.039 26.0734 148.103 26.0734C150.756 26.0734 152.319 27.3118 152.791 29.7885C152.909 30.5257 152.997 31.307 153.056 32.1326C155.238 28.0342 157.995 25.985 161.327 25.985C164.954 25.985 167.032 27.7246 167.563 31.2038C167.74 32.2063 167.814 33.2825 167.784 34.4324V34.7863C169.701 32.1326 171.971 30.8058 174.595 30.8058C178.31 30.8058 180.168 33.0466 180.168 37.5284C180.168 39.4744 179.858 41.7595 179.239 44.3837C178.649 46.9784 178.207 48.8507 177.912 50.0006C177.647 51.121 177.514 51.9908 177.514 52.61C177.514 53.7305 177.898 54.2907 178.664 54.2907C179.46 54.2907 181.333 52.7575 184.281 49.691C184.812 49.1013 185.195 48.8064 185.431 48.8064Z" fill="#B3D968"/>
<path d="M211.135 48.8064C211.666 48.8064 211.931 49.4846 211.931 50.8409C211.931 51.578 211.621 52.4773 211.002 53.5388C210.383 54.5708 209.572 55.5291 208.57 56.4136C207.597 57.2687 206.506 57.9763 205.297 58.5365C204.088 59.0968 202.909 59.3769 201.759 59.3769C200.196 59.3769 199.149 58.0058 198.618 55.2637C197.852 56.5315 196.849 57.5783 195.611 58.4039C194.373 59.2 192.707 59.598 190.613 59.598C188.549 59.598 186.883 58.9493 185.615 57.652C184.348 56.3546 183.728 54.7772 183.758 52.9196C183.758 47.9071 185.424 43.9561 188.756 41.0666C190.171 39.8577 191.483 39.0616 192.692 38.6783C193.93 38.295 195.228 38.1033 196.584 38.1033C197.94 38.1033 199.046 38.3392 199.901 38.811C200.314 37.9559 200.786 37.5284 201.316 37.5284C202.348 37.5284 203.321 37.9854 204.235 38.8994C205.179 39.784 205.651 40.6243 205.651 41.4204C205.238 42.3934 204.633 43.5581 203.837 44.9144C203.601 46.2707 203.483 48.1725 203.483 50.6198C203.483 53.067 203.793 54.2907 204.412 54.2907C205.179 54.2907 207.036 52.7575 209.985 49.691C210.516 49.1013 210.899 48.8064 211.135 48.8064ZM190.259 51.4601C190.259 53.7305 191.1 54.8656 192.78 54.8656C194.579 54.8362 196.068 53.8779 197.247 51.9908C197.66 51.3422 197.999 50.5461 198.265 49.6025C198.265 46.3002 198.559 43.4696 199.149 41.1108C196.761 41.5826 194.682 42.7325 192.913 44.5606C191.144 46.3887 190.259 48.6885 190.259 51.4601Z" fill="#B3D968"/>
<path d="M215.603 37.1746C216.665 37.1746 217.667 38.1918 218.611 40.2263C219.997 38.7815 221.707 38.0591 223.741 38.0591C225.805 38.0591 227.353 38.5161 228.385 39.4302C229.417 40.3147 229.933 41.5826 229.933 43.2338C229.933 44.8554 229.712 46.5066 229.27 48.1873C228.857 49.8679 228.547 51.0768 228.341 51.8139C228.164 52.5216 228.075 53.1113 228.075 53.583C228.075 54.0548 228.238 54.2907 228.562 54.2907C229.004 54.2907 229.55 54.0106 230.198 53.4504C230.847 52.8901 231.496 52.2857 232.144 51.637C232.793 50.9589 233.383 50.3397 233.914 49.7795C234.474 49.2192 234.857 48.9391 235.063 48.9391C235.476 48.9391 235.683 49.4404 235.683 50.4429C235.683 52.5068 234.665 54.4971 232.631 56.4136C229.211 58.4186 227.029 59.4211 226.085 59.4211C225.997 59.4211 225.938 59.4064 225.908 59.3769C223.55 59.3769 222.37 57.4898 222.37 53.7157C222.37 52.094 222.518 50.605 222.812 49.2487C223.137 47.8924 223.373 46.9047 223.52 46.2855C223.667 45.6663 223.741 45.0323 223.741 44.3837C223.741 43.3222 223.122 42.7915 221.884 42.7915C220.675 42.7915 219.51 43.7055 218.39 45.5336C217.299 47.3322 216.562 49.2045 216.178 51.1505V51.4601C216.178 52.4626 216.326 53.4946 216.62 54.556C216.945 55.6175 217.107 56.3546 217.107 56.7674C217.107 57.7699 215.854 58.7577 213.348 59.7307C212.964 59.8781 212.625 59.9518 212.33 59.9518C211.593 59.9518 211.077 59.5685 210.782 58.8019C210.517 58.0353 210.384 56.8411 210.384 55.2195C210.384 51.0326 210.547 48.0103 210.871 46.1528C211.313 43.3812 212.316 40.8012 213.878 38.4129C214.409 37.5874 214.984 37.1746 215.603 37.1746Z" fill="#B3D968"/>
<path d="M243.56 37.838C245.536 37.8085 247.01 38.1771 247.983 38.9437C248.956 39.6808 249.442 40.757 249.442 42.1723C249.442 43.5581 249.015 44.7522 248.16 45.7547C247.334 46.7277 246.317 47.4206 245.108 47.8334C245.963 48.718 246.73 49.6173 247.408 50.5313C248.115 51.4454 248.469 52.4036 248.469 53.4061C248.469 55.3816 247.688 56.9149 246.125 58.0058C244.562 59.0673 242.381 59.598 239.58 59.598C236.808 59.598 234.729 59.0525 233.343 57.9616C231.958 56.8411 231.265 55.588 231.265 54.2022C231.265 52.7869 231.604 51.5043 232.282 50.3544C232.99 49.2045 233.741 48.6295 234.538 48.6295C235.009 48.6295 235.348 48.8064 235.555 49.1603C235.761 49.4846 236.144 50.4576 236.705 52.0793C236.911 52.669 237.25 53.2292 237.722 53.7599C238.813 54.9688 240.538 55.5733 242.897 55.5733C242.543 54.4528 241.968 53.4946 241.172 52.6985C240.405 51.8729 239.638 51.0768 238.872 50.3102C238.105 49.5436 237.427 48.7327 236.837 47.8777C236.248 46.9931 235.953 45.9611 235.953 44.7817C235.953 42.6588 236.749 40.9339 238.341 39.6071C239.845 38.4277 241.584 37.838 243.56 37.838ZM243.383 46.0201C244.562 44.7522 245.152 43.735 245.152 42.9684C245.152 42.6146 245.02 42.305 244.754 42.0396C244.518 41.7448 244.164 41.5973 243.693 41.5973C243.221 41.5973 242.764 41.6563 242.322 41.7742C241.909 41.8922 241.57 41.9806 241.304 42.0396C241.304 43.16 241.997 44.4869 243.383 46.0201Z" fill="#B3D968"/>
<path d="M263.125 56.0156C261.651 58.05 259.675 59.0673 257.198 59.0673C255.193 59.0673 253.586 58.6545 252.378 57.8289C251.198 56.9738 250.608 55.6323 250.608 53.8042C250.608 53.0376 250.712 52.3299 250.918 51.6812C251.154 51.0326 251.522 50.2365 252.024 49.293L253.306 38.811C254.22 38.1033 255.459 37.7495 257.021 37.7495C258.348 37.7495 259.1 38.6341 259.277 40.4032C259.336 40.9339 259.366 41.5678 259.366 42.305C259.366 43.0126 259.248 43.7645 259.012 44.5606C257.832 48.6295 257.257 51.3569 257.287 52.7427C257.287 53.8042 257.906 54.3349 259.144 54.3349C260.383 54.3349 261.297 53.9369 261.887 53.1408C262.476 52.3447 262.977 51.3569 263.39 50.1775C264.157 46.9047 264.864 44.2068 265.513 42.0838C266.191 39.9609 266.619 38.693 266.796 38.2803C267.091 37.5726 267.651 37.204 268.476 37.1746C269.302 37.204 270.083 37.7938 270.82 38.9437C271.558 40.0641 271.926 40.9339 271.926 41.5531C271.867 43.6171 270.585 48.8212 268.078 57.1655C269.995 55.6617 271.897 53.8189 273.784 51.637C274.432 50.8704 274.978 50.2365 275.42 49.7352C275.862 49.2045 276.216 48.9391 276.482 48.9391C276.894 48.9391 277.101 49.4109 277.101 50.3544C277.101 52.212 276.054 54.3791 273.961 56.8559C271.897 59.3326 269.361 61.2639 266.353 62.6497C266 63.8291 265.616 64.9496 265.204 66.011C264.791 67.0725 264.26 68.0013 263.611 68.7974C262.196 70.5075 260.044 71.3626 257.154 71.3626C255.208 71.3626 253.542 70.8024 252.156 69.6819C250.8 68.5615 250.122 67.1609 250.122 65.4803C250.122 64.5368 250.432 63.7849 251.051 63.2247C251.699 62.6645 252.569 62.1927 253.66 61.8094C254.781 61.4556 256.078 61.1312 257.552 60.8364C259.026 60.571 260.604 60.2319 262.285 59.8191C262.697 58.05 262.977 56.7822 263.125 56.0156ZM257.11 67.957C258.496 67.957 259.749 66.7481 260.869 64.3304C259.808 64.5368 258.864 64.6842 258.039 64.7726C257.213 64.8906 256.505 64.9938 255.916 65.0822C254.736 65.2591 254.161 65.5687 254.191 66.011C254.191 66.5712 254.515 67.043 255.164 67.4263C255.842 67.8096 256.491 67.9865 257.11 67.957Z" fill="#B3D968"/>
<path d="M288.651 40.5801C288.651 38.6046 290.184 37.6168 293.251 37.6168C294.017 37.6168 294.489 37.8675 294.666 38.3687C294.873 38.87 294.976 39.6366 294.976 40.6686C294.976 42.1133 294.651 44.3542 294.003 47.3912C293.354 50.4281 293.044 52.4773 293.074 53.5388C293.074 54.0401 293.236 54.2907 293.56 54.2907C294.003 54.2907 294.548 54.0106 295.197 53.4504C295.846 52.8901 296.494 52.2857 297.143 51.637C297.792 50.9589 298.381 50.3397 298.912 49.7795C299.472 49.2192 299.856 48.9391 300.062 48.9391C300.475 48.9391 300.681 49.4404 300.681 50.4429C300.681 52.5068 299.664 54.4971 297.629 56.4136C294.209 58.4186 292.042 59.4211 291.128 59.4211C291.039 59.4211 290.966 59.4064 290.907 59.3769C289.786 59.3769 288.99 59.0083 288.518 58.2712C288.076 57.534 287.796 56.6053 287.678 55.4848C287.088 56.5758 286.278 57.5193 285.246 58.3154C284.214 59.082 283.034 59.4653 281.707 59.4653C279.378 59.4653 277.58 59.023 276.312 58.1385C275.073 57.2539 274.454 55.9418 274.454 54.2022C274.454 53.4356 274.557 52.728 274.764 52.0793C275 51.4306 275.368 50.6345 275.869 49.691L277.152 38.811C278.066 38.1033 279.378 37.7495 281.088 37.7495C282.445 37.7495 283.211 38.6341 283.388 40.4032C283.536 41.848 283.462 43.1453 283.167 44.2952C282.902 45.4157 282.533 46.8457 282.061 48.5853C281.589 50.2954 281.354 51.8139 281.354 53.1408C281.354 54.2022 282.017 54.733 283.344 54.733C284.789 54.733 286.042 53.4651 287.103 50.9294C287.929 48.9834 288.489 46.8162 288.784 44.4279C288.754 44.192 288.725 43.8972 288.695 43.5434C288.695 43.16 288.681 42.7915 288.651 42.4377C288.651 42.0838 288.651 41.73 288.651 41.3762V40.5801Z" fill="#B3D968"/>
<path d="M304.936 51.8139L305.201 57.2097C305.201 57.9174 304.833 58.5513 304.096 59.1115C303.358 59.6717 302.356 59.9518 301.088 59.9518C300.351 59.9518 299.835 59.5685 299.54 58.8019C299.275 58.0353 299.142 56.9149 299.142 55.4406C299.142 52.3447 299.29 49.9269 299.584 48.1873C299.909 46.4182 300.528 44.6343 301.442 42.8357C300.086 41.5384 299.407 40.4179 299.407 39.4744C299.407 37.4989 300.469 36.5111 302.592 36.5111C303.683 36.5111 304.641 37.0861 305.467 38.236C306.056 39.0321 306.484 39.9609 306.749 41.0224C307.162 41.1698 307.678 41.2435 308.297 41.2435C309.152 41.2435 310.14 40.9634 311.26 40.4032L312.41 39.8282C312.764 39.6513 313.074 39.5629 313.339 39.5629C314.194 39.5629 315.049 40.816 315.904 43.3222C315.639 44.4721 315.344 45.5778 315.02 46.6393C314.725 47.7008 314.371 48.9834 313.958 50.4871C313.546 51.9908 313.324 53.0081 313.295 53.5388C313.295 54.0401 313.457 54.2907 313.781 54.2907C314.224 54.2907 314.769 54.0106 315.418 53.4504C316.067 52.8901 316.715 52.2857 317.364 51.637C318.013 50.9589 318.602 50.3397 319.133 49.7795C319.693 49.2192 320.077 48.9391 320.283 48.9391C320.696 48.9391 320.902 49.4404 320.902 50.4429C320.902 52.4773 320.003 54.4823 318.204 56.4578C316.435 58.4333 314.401 59.4064 312.101 59.3769C310.745 59.3769 309.727 58.8314 309.049 57.7404C308.371 56.6495 308.017 55.3227 307.988 53.7599C307.988 50.664 308.681 47.7302 310.066 44.9586C309.418 45.224 308.681 45.3567 307.855 45.3567C307.059 45.3567 306.484 45.3272 306.13 45.2682C305.865 46.3887 305.599 47.5238 305.334 48.6738C305.069 49.7942 304.936 50.8409 304.936 51.8139Z" fill="#B3D968"/>
<path d="M323.999 59.3769C321.051 59.3769 319.577 56.62 319.577 51.1063C319.577 48.0988 319.945 45.3714 320.682 42.9242C321.832 39.1501 323.13 37.263 324.574 37.263C325.429 37.263 326.108 37.838 326.609 38.9879C327.022 39.8725 327.213 40.7423 327.184 41.5973C327.184 42.7767 326.83 44.8554 326.122 47.8334C325.444 50.4281 325.105 52.0351 325.105 52.6543C325.105 53.2734 325.253 53.701 325.547 53.9369C325.872 54.1727 326.24 54.2907 326.653 54.2907C327.095 54.2907 327.641 54.0106 328.29 53.4504C328.938 52.8901 329.587 52.2857 330.236 51.637C330.884 50.9589 331.474 50.3397 332.005 49.7795C332.565 49.2192 332.948 48.9391 333.155 48.9391C333.567 48.9391 333.774 49.4404 333.774 50.4429C333.774 52.5068 332.727 54.5266 330.634 56.5021C328.57 58.4481 326.358 59.4064 323.999 59.3769ZM325.813 33.6806C325.017 32.5012 324.619 31.2333 324.619 29.877C324.619 28.5207 324.825 27.4002 325.238 26.5157C325.68 25.6017 326.093 24.9382 326.476 24.5254C326.86 24.0832 327.302 23.862 327.803 23.862C328.629 23.862 329.381 24.4812 330.059 25.7196C330.737 26.9285 331.076 27.9457 331.076 28.7713C331.076 30.3045 330.53 31.5134 329.439 32.398C328.378 33.253 327.169 33.6806 325.813 33.6806Z" fill="#B3D968"/>
<path d="M337.445 37.1746C338.507 37.1746 339.509 38.1918 340.453 40.2263C341.839 38.7815 343.549 38.0591 345.583 38.0591C347.647 38.0591 349.195 38.5161 350.227 39.4302C351.259 40.3147 351.775 41.5826 351.775 43.2338C351.775 44.8554 351.554 46.5066 351.112 48.1873C350.699 49.8679 350.389 51.0768 350.183 51.8139C350.006 52.5216 349.918 53.1113 349.918 53.583C349.918 54.0548 350.08 54.2907 350.404 54.2907C350.846 54.2907 351.392 54.0106 352.041 53.4504C352.689 52.8901 353.338 52.2857 353.987 51.637C354.635 50.9589 355.225 50.3397 355.756 49.7795C356.316 49.2192 356.699 48.9391 356.906 48.9391C357.318 48.9391 357.525 49.4404 357.525 50.4429C357.525 52.5068 356.507 54.4971 354.473 56.4136C351.053 58.4186 348.871 59.4211 347.927 59.4211C347.839 59.4211 347.78 59.4064 347.75 59.3769C345.392 59.3769 344.212 57.4898 344.212 53.7157C344.212 52.094 344.36 50.605 344.654 49.2487C344.979 47.8924 345.215 46.9047 345.362 46.2855C345.51 45.6663 345.583 45.0323 345.583 44.3837C345.583 43.3222 344.964 42.7915 343.726 42.7915C342.517 42.7915 341.352 43.7055 340.232 45.5336C339.141 47.3322 338.404 49.2045 338.02 51.1505V51.4601C338.02 52.4626 338.168 53.4946 338.463 54.556C338.787 55.6175 338.949 56.3546 338.949 56.7674C338.949 57.7699 337.696 58.7577 335.19 59.7307C334.806 59.8781 334.467 59.9518 334.173 59.9518C333.435 59.9518 332.919 59.5685 332.625 58.8019C332.359 58.0353 332.226 56.8411 332.226 55.2195C332.226 51.0326 332.389 48.0103 332.713 46.1528C333.155 43.3812 334.158 40.8012 335.72 38.4129C336.251 37.5874 336.826 37.1746 337.445 37.1746Z" fill="#B3D968"/>
<path d="M382.474 48.8064C383.005 48.8064 383.27 49.4846 383.27 50.8409C383.27 51.578 382.961 52.4773 382.341 53.5388C381.722 54.5708 380.911 55.5291 379.909 56.4136C378.936 57.2687 377.845 57.9763 376.636 58.5365C375.427 59.0968 374.248 59.3769 373.098 59.3769C371.535 59.3769 370.488 58.0058 369.958 55.2637C369.191 56.5315 368.188 57.5783 366.95 58.4039C365.712 59.2 364.046 59.598 361.952 59.598C359.888 59.598 358.222 58.9493 356.955 57.652C355.687 56.3546 355.068 54.7772 355.097 52.9196C355.097 47.9071 356.763 43.9561 360.095 41.0666C361.51 39.8577 362.822 39.0616 364.031 38.6783C365.269 38.295 366.567 38.1033 367.923 38.1033C369.279 38.1033 370.385 38.3392 371.24 38.811C371.653 37.9559 372.125 37.5284 372.655 37.5284C373.687 37.5284 374.66 37.9854 375.574 38.8994C376.518 39.784 376.99 40.6243 376.99 41.4204C376.577 42.3934 375.973 43.5581 375.176 44.9144C374.941 46.2707 374.823 48.1725 374.823 50.6198C374.823 53.067 375.132 54.2907 375.751 54.2907C376.518 54.2907 378.376 52.7575 381.324 49.691C381.855 49.1013 382.238 48.8064 382.474 48.8064ZM361.599 51.4601C361.599 53.7305 362.439 54.8656 364.119 54.8656C365.918 54.8362 367.407 53.8779 368.587 51.9908C368.999 51.3422 369.338 50.5461 369.604 49.6025C369.604 46.3002 369.899 43.4696 370.488 41.1108C368.1 41.5826 366.021 42.7325 364.252 44.5606C362.483 46.3887 361.599 48.6885 361.599 51.4601Z" fill="#B3D968"/>
</svg>
